<?xml version="1.0" encoding="UTF-8"?>
<svg xmlns="http://www.w3.org/2000/svg" xmlns:xlink="http://www.w3.org/1999/xlink" width="504pt" height="360pt" viewBox="0 0 504 360" version="1.1">
<defs>
<g>
<symbol overflow="visible" id="glyph0-0">
<path style="stroke:none;" d=""/>
</symbol>
<symbol overflow="visible" id="glyph0-1">
<path style="stroke:none;" d="M 2.71875 -3 L 0.4375 -3 L 0.4375 -2.296875 L 2.71875 -2.296875 Z M 2.71875 -3 "/>
</symbol>
<symbol overflow="visible" id="glyph0-2">
<path style="stroke:none;" d="M 4.5625 -6.796875 L 1.0625 -6.796875 L 0.546875 -3.09375 L 1.328125 -3.09375 C 1.71875 -3.5625 2.046875 -3.734375 2.578125 -3.734375 C 3.484375 -3.734375 4.0625 -3.109375 4.0625 -2.09375 C 4.0625 -1.125 3.484375 -0.53125 2.578125 -0.53125 C 1.828125 -0.53125 1.375 -0.90625 1.1875 -1.671875 L 0.328125 -1.671875 C 0.453125 -1.109375 0.546875 -0.84375 0.75 -0.59375 C 1.125 -0.078125 1.828125 0.21875 2.59375 0.21875 C 3.96875 0.21875 4.921875 -0.78125 4.921875 -2.21875 C 4.921875 -3.5625 4.03125 -4.484375 2.71875 -4.484375 C 2.25 -4.484375 1.859375 -4.359375 1.46875 -4.0625 L 1.734375 -5.96875 L 4.5625 -5.96875 Z M 4.5625 -6.796875 "/>
</symbol>
<symbol overflow="visible" id="glyph0-3">
<path style="stroke:none;" d="M 2.640625 -6.9375 C 2 -6.9375 1.421875 -6.65625 1.078125 -6.171875 C 0.640625 -5.5625 0.40625 -4.640625 0.40625 -3.359375 C 0.40625 -1.015625 1.1875 0.21875 2.640625 0.21875 C 4.078125 0.21875 4.859375 -1.015625 4.859375 -3.296875 C 4.859375 -4.640625 4.65625 -5.546875 4.203125 -6.171875 C 3.84375 -6.65625 3.28125 -6.9375 2.640625 -6.9375 Z M 2.640625 -6.1875 C 3.546875 -6.1875 4 -5.25 4 -3.375 C 4 -1.40625 3.5625 -0.484375 2.625 -0.484375 C 1.734375 -0.484375 1.28125 -1.4375 1.28125 -3.34375 C 1.28125 -5.25 1.734375 -6.1875 2.640625 -6.1875 Z M 2.640625 -6.1875 "/>
</symbol>
<symbol overflow="visible" id="glyph0-4">
<path style="stroke:none;" d="M 1.90625 -6.578125 C 1 -6.578125 0.28125 -5.828125 0.28125 -4.9375 C 0.28125 -4.03125 1 -3.296875 1.921875 -3.296875 C 2.8125 -3.296875 3.546875 -4.03125 3.546875 -4.90625 C 3.546875 -5.84375 2.828125 -6.578125 1.90625 -6.578125 Z M 1.90625 -5.90625 C 2.453125 -5.90625 2.890625 -5.46875 2.890625 -4.921875 C 2.890625 -4.390625 2.453125 -3.96875 1.921875 -3.96875 C 1.375 -3.96875 0.9375 -4.390625 0.9375 -4.9375 C 0.9375 -5.46875 1.375 -5.90625 1.90625 -5.90625 Z M 5.84375 -6.796875 L 2.046875 0.1875 L 2.6875 0.1875 L 6.46875 -6.796875 Z M 6.59375 -3.09375 C 5.703125 -3.09375 4.96875 -2.359375 4.96875 -1.453125 C 4.96875 -0.546875 5.703125 0.1875 6.609375 0.1875 C 7.5 0.1875 8.234375 -0.546875 8.234375 -1.4375 C 8.234375 -2.359375 7.515625 -3.09375 6.59375 -3.09375 Z M 6.59375 -2.421875 C 7.140625 -2.421875 7.578125 -1.984375 7.578125 -1.4375 C 7.578125 -0.921875 7.140625 -0.484375 6.609375 -0.484375 C 6.0625 -0.484375 5.625 -0.921875 5.625 -1.453125 C 5.625 -1.984375 6.0625 -2.421875 6.59375 -2.421875 Z M 6.59375 -2.421875 "/>
</symbol>
<symbol overflow="visible" id="glyph0-5">
<path style="stroke:none;" d="M 3.140625 -1.671875 L 3.140625 0 L 3.984375 0 L 3.984375 -1.671875 L 4.984375 -1.671875 L 4.984375 -2.4375 L 3.984375 -2.4375 L 3.984375 -6.9375 L 3.359375 -6.9375 L 0.265625 -2.578125 L 0.265625 -1.671875 Z M 3.140625 -2.4375 L 1 -2.4375 L 3.140625 -5.5 Z M 3.140625 -2.4375 "/>
</symbol>
<symbol overflow="visible" id="glyph0-6">
<path style="stroke:none;" d="M 2.125 -3.1875 L 2.578125 -3.1875 C 3.5 -3.1875 3.984375 -2.765625 3.984375 -1.921875 C 3.984375 -1.0625 3.46875 -0.53125 2.59375 -0.53125 C 1.65625 -0.53125 1.203125 -1 1.15625 -2.015625 L 0.3125 -2.015625 C 0.34375 -1.453125 0.4375 -1.09375 0.609375 -0.78125 C 0.953125 -0.109375 1.625 0.21875 2.546875 0.21875 C 3.953125 0.21875 4.859375 -0.625 4.859375 -1.9375 C 4.859375 -2.828125 4.515625 -3.296875 3.703125 -3.59375 C 4.34375 -3.84375 4.65625 -4.328125 4.65625 -5.03125 C 4.65625 -6.21875 3.875 -6.9375 2.578125 -6.9375 C 1.203125 -6.9375 0.484375 -6.171875 0.453125 -4.703125 L 1.296875 -4.703125 C 1.3125 -5.125 1.34375 -5.359375 1.453125 -5.578125 C 1.640625 -5.96875 2.0625 -6.203125 2.59375 -6.203125 C 3.34375 -6.203125 3.796875 -5.75 3.796875 -5 C 3.796875 -4.515625 3.609375 -4.21875 3.25 -4.046875 C 3.015625 -3.953125 2.703125 -3.921875 2.125 -3.90625 Z M 2.125 -3.1875 "/>
</symbol>
<symbol overflow="visible" id="glyph0-7">
<path style="stroke:none;" d="M 4.859375 -0.828125 L 1.28125 -0.828125 C 1.359375 -1.40625 1.671875 -1.78125 2.5 -2.28125 L 3.46875 -2.828125 C 4.40625 -3.34375 4.90625 -4.0625 4.90625 -4.90625 C 4.90625 -5.484375 4.671875 -6.03125 4.265625 -6.40625 C 3.859375 -6.765625 3.375 -6.9375 2.71875 -6.9375 C 1.859375 -6.9375 1.21875 -6.625 0.84375 -6.03125 C 0.609375 -5.671875 0.5 -5.234375 0.484375 -4.53125 L 1.328125 -4.53125 C 1.359375 -5.015625 1.40625 -5.28125 1.53125 -5.515625 C 1.75 -5.9375 2.1875 -6.203125 2.703125 -6.203125 C 3.46875 -6.203125 4.03125 -5.640625 4.03125 -4.890625 C 4.03125 -4.34375 3.71875 -3.859375 3.125 -3.515625 L 2.234375 -3 C 0.8125 -2.171875 0.40625 -1.53125 0.328125 -0.015625 L 4.859375 -0.015625 Z M 4.859375 -0.828125 "/>
</symbol>
<symbol overflow="visible" id="glyph0-8">
<path style="stroke:none;" d="M 2.484375 -4.9375 L 2.484375 0 L 3.328125 0 L 3.328125 -6.9375 L 2.765625 -6.9375 C 2.46875 -5.875 2.28125 -5.734375 0.984375 -5.5625 L 0.984375 -4.9375 Z M 2.484375 -4.9375 "/>
</symbol>
<symbol overflow="visible" id="glyph0-9">
<path style="stroke:none;" d="M 4.78125 -5.125 C 4.609375 -6.265625 3.890625 -6.9375 2.84375 -6.9375 C 2.09375 -6.9375 1.421875 -6.578125 1.03125 -5.953125 C 0.59375 -5.265625 0.40625 -4.421875 0.40625 -3.171875 C 0.40625 -2 0.578125 -1.25 0.984375 -0.640625 C 1.359375 -0.078125 1.953125 0.21875 2.703125 0.21875 C 3.984375 0.21875 4.921875 -0.75 4.921875 -2.09375 C 4.921875 -3.375 4.0625 -4.28125 2.84375 -4.28125 C 2.171875 -4.28125 1.640625 -4.03125 1.28125 -3.515625 C 1.28125 -5.234375 1.828125 -6.1875 2.796875 -6.1875 C 3.390625 -6.1875 3.796875 -5.796875 3.9375 -5.125 Z M 2.734375 -3.53125 C 3.546875 -3.53125 4.0625 -2.953125 4.0625 -2.03125 C 4.0625 -1.15625 3.484375 -0.53125 2.703125 -0.53125 C 1.921875 -0.53125 1.328125 -1.1875 1.328125 -2.078125 C 1.328125 -2.9375 1.90625 -3.53125 2.734375 -3.53125 Z M 2.734375 -3.53125 "/>
</symbol>
<symbol overflow="visible" id="glyph0-10">
<path style="stroke:none;" d="M 1.75 -3.1875 L 5.09375 -3.1875 L 5.09375 -3.96875 L 1.75 -3.96875 L 1.75 -6.203125 L 5.5625 -6.203125 L 5.5625 -7 L 0.859375 -7 L 0.859375 0 L 1.75 0 Z M 1.75 -3.1875 "/>
</symbol>
<symbol overflow="visible" id="glyph0-11">
<path style="stroke:none;" d="M 1.4375 -5.03125 L 0.640625 -5.03125 L 0.640625 0 L 1.4375 0 Z M 1.4375 -7 L 0.640625 -7 L 0.640625 -5.984375 L 1.4375 -5.984375 Z M 1.4375 -7 "/>
</symbol>
<symbol overflow="visible" id="glyph0-12">
<path style="stroke:none;" d="M 3.875 -5.03125 L 3.875 -4.296875 C 3.46875 -4.90625 3.03125 -5.171875 2.390625 -5.171875 C 1.1875 -5.171875 0.328125 -4.03125 0.328125 -2.421875 C 0.328125 -1.578125 0.53125 -0.96875 0.96875 -0.453125 C 1.34375 -0.015625 1.828125 0.21875 2.34375 0.21875 C 2.9375 0.21875 3.375 -0.046875 3.796875 -0.6875 L 3.796875 -0.421875 C 3.796875 0.921875 3.421875 1.421875 2.421875 1.421875 C 1.75 1.421875 1.390625 1.15625 1.3125 0.578125 L 0.5 0.578125 C 0.578125 1.5 1.3125 2.09375 2.40625 2.09375 C 3.140625 2.09375 3.765625 1.859375 4.09375 1.453125 C 4.46875 0.984375 4.609375 0.359375 4.609375 -0.828125 L 4.609375 -5.03125 Z M 2.46875 -4.4375 C 3.3125 -4.4375 3.796875 -3.71875 3.796875 -2.453125 C 3.796875 -1.234375 3.3125 -0.515625 2.46875 -0.515625 C 1.65625 -0.515625 1.171875 -1.234375 1.171875 -2.46875 C 1.171875 -3.703125 1.65625 -4.4375 2.46875 -4.4375 Z M 2.46875 -4.4375 "/>
</symbol>
<symbol overflow="visible" id="glyph0-13">
<path style="stroke:none;" d="M 4.625 0 L 4.625 -5.03125 L 3.828125 -5.03125 L 3.828125 -2.171875 C 3.828125 -1.15625 3.296875 -0.484375 2.453125 -0.484375 C 1.828125 -0.484375 1.421875 -0.859375 1.421875 -1.46875 L 1.421875 -5.03125 L 0.625 -5.03125 L 0.625 -1.15625 C 0.625 -0.3125 1.25 0.21875 2.21875 0.21875 C 2.96875 0.21875 3.4375 -0.03125 3.90625 -0.703125 L 3.90625 0 Z M 4.625 0 "/>
</symbol>
<symbol overflow="visible" id="glyph0-14">
<path style="stroke:none;" d="M 0.65625 -5.03125 L 0.65625 0 L 1.46875 0 L 1.46875 -2.609375 C 1.484375 -3.8125 1.96875 -4.359375 3.078125 -4.328125 L 3.078125 -5.140625 C 2.9375 -5.15625 2.875 -5.171875 2.765625 -5.171875 C 2.25 -5.171875 1.859375 -4.859375 1.40625 -4.109375 L 1.40625 -5.03125 Z M 0.65625 -5.03125 "/>
</symbol>
<symbol overflow="visible" id="glyph0-15">
<path style="stroke:none;" d="M 4.921875 -2.25 C 4.921875 -3.015625 4.859375 -3.46875 4.71875 -3.84375 C 4.390625 -4.671875 3.625 -5.171875 2.6875 -5.171875 C 1.28125 -5.171875 0.390625 -4.109375 0.390625 -2.453125 C 0.390625 -0.78125 1.25 0.21875 2.671875 0.21875 C 3.8125 0.21875 4.609375 -0.4375 4.8125 -1.53125 L 4.015625 -1.53125 C 3.796875 -0.859375 3.34375 -0.515625 2.703125 -0.515625 C 2.1875 -0.515625 1.75 -0.75 1.484375 -1.171875 C 1.296875 -1.453125 1.234375 -1.75 1.21875 -2.25 Z M 1.234375 -2.890625 C 1.3125 -3.828125 1.875 -4.4375 2.671875 -4.4375 C 3.484375 -4.4375 4.0625 -3.796875 4.0625 -2.890625 Z M 1.234375 -2.890625 "/>
</symbol>
<symbol overflow="visible" id="glyph0-16">
<path style="stroke:none;" d=""/>
</symbol>
<symbol overflow="visible" id="glyph0-17">
<path style="stroke:none;" d="M 0.671875 -5.03125 L 0.671875 0 L 1.484375 0 L 1.484375 -2.765625 C 1.484375 -3.796875 2.015625 -4.46875 2.84375 -4.46875 C 3.46875 -4.46875 3.875 -4.09375 3.875 -3.484375 L 3.875 0 L 4.671875 0 L 4.671875 -3.796875 C 4.671875 -4.640625 4.046875 -5.171875 3.078125 -5.171875 C 2.328125 -5.171875 1.859375 -4.890625 1.40625 -4.1875 L 1.40625 -5.03125 Z M 0.671875 -5.03125 "/>
</symbol>
<symbol overflow="visible" id="glyph0-18">
<path style="stroke:none;" d="M 5.125 -0.46875 C 5.046875 -0.453125 5.015625 -0.453125 4.953125 -0.453125 C 4.6875 -0.453125 4.53125 -0.59375 4.53125 -0.84375 L 4.53125 -3.796875 C 4.53125 -4.6875 3.875 -5.171875 2.640625 -5.171875 C 1.90625 -5.171875 1.3125 -4.953125 0.96875 -4.578125 C 0.734375 -4.328125 0.640625 -4.03125 0.625 -3.546875 L 1.421875 -3.546875 C 1.5 -4.15625 1.859375 -4.4375 2.609375 -4.4375 C 3.34375 -4.4375 3.734375 -4.15625 3.734375 -3.6875 L 3.734375 -3.46875 C 3.71875 -3.125 3.546875 -3 2.890625 -2.921875 C 1.765625 -2.765625 1.59375 -2.734375 1.28125 -2.609375 C 0.703125 -2.359375 0.40625 -1.921875 0.40625 -1.265625 C 0.40625 -0.359375 1.03125 0.21875 2.046875 0.21875 C 2.6875 0.21875 3.1875 0 3.765625 -0.515625 C 3.8125 0 4.0625 0.21875 4.578125 0.21875 C 4.765625 0.21875 4.859375 0.203125 5.125 0.140625 Z M 3.734375 -1.578125 C 3.734375 -1.3125 3.65625 -1.15625 3.421875 -0.9375 C 3.09375 -0.640625 2.703125 -0.484375 2.21875 -0.484375 C 1.609375 -0.484375 1.234375 -0.78125 1.234375 -1.28125 C 1.234375 -1.8125 1.578125 -2.078125 2.453125 -2.203125 C 3.296875 -2.328125 3.46875 -2.359375 3.734375 -2.484375 Z M 3.734375 -1.578125 "/>
</symbol>
<symbol overflow="visible" id="glyph0-19">
<path style="stroke:none;" d="M 2.4375 -5.03125 L 1.609375 -5.03125 L 1.609375 -6.40625 L 0.8125 -6.40625 L 0.8125 -5.03125 L 0.140625 -5.03125 L 0.140625 -4.375 L 0.8125 -4.375 L 0.8125 -0.578125 C 0.8125 -0.0625 1.15625 0.21875 1.78125 0.21875 C 2 0.21875 2.171875 0.203125 2.4375 0.15625 L 2.4375 -0.515625 C 2.328125 -0.484375 2.21875 -0.484375 2.046875 -0.484375 C 1.703125 -0.484375 1.609375 -0.578125 1.609375 -0.9375 L 1.609375 -4.375 L 2.4375 -4.375 Z M 2.4375 -5.03125 "/>
</symbol>
<symbol overflow="visible" id="glyph0-20">
<path style="stroke:none;" d="M 4.75 -7 L 3.953125 -7 L 3.953125 -4.390625 C 3.609375 -4.90625 3.078125 -5.171875 2.40625 -5.171875 C 1.109375 -5.171875 0.25 -4.125 0.25 -2.515625 C 0.25 -0.828125 1.078125 0.21875 2.4375 0.21875 C 3.125 0.21875 3.609375 -0.03125 4.03125 -0.65625 L 4.03125 0 L 4.75 0 Z M 2.546875 -4.421875 C 3.40625 -4.421875 3.953125 -3.671875 3.953125 -2.453125 C 3.953125 -1.296875 3.390625 -0.53125 2.546875 -0.53125 C 1.671875 -0.53125 1.078125 -1.3125 1.078125 -2.46875 C 1.078125 -3.640625 1.671875 -4.421875 2.546875 -4.421875 Z M 2.546875 -4.421875 "/>
</symbol>
<symbol overflow="visible" id="glyph0-21">
<path style="stroke:none;" d="M 3.390625 -6.203125 L 5.6875 -6.203125 L 5.6875 -7 L 0.203125 -7 L 0.203125 -6.203125 L 2.5 -6.203125 L 2.5 0 L 3.390625 0 Z M 3.390625 -6.203125 "/>
</symbol>
<symbol overflow="visible" id="glyph0-22">
<path style="stroke:none;" d="M 0.671875 -7 L 0.671875 0 L 1.46875 0 L 1.46875 -2.765625 C 1.46875 -3.796875 2 -4.46875 2.828125 -4.46875 C 3.09375 -4.46875 3.34375 -4.390625 3.546875 -4.25 C 3.765625 -4.078125 3.859375 -3.84375 3.859375 -3.484375 L 3.859375 0 L 4.65625 0 L 4.65625 -3.796875 C 4.65625 -4.640625 4.0625 -5.171875 3.078125 -5.171875 C 2.375 -5.171875 1.9375 -4.953125 1.46875 -4.34375 L 1.46875 -7 Z M 0.671875 -7 "/>
</symbol>
<symbol overflow="visible" id="glyph0-23">
<path style="stroke:none;" d="M 4.203125 -3.625 C 4.1875 -4.609375 3.546875 -5.171875 2.375 -5.171875 C 1.203125 -5.171875 0.453125 -4.5625 0.453125 -3.640625 C 0.453125 -2.84375 0.859375 -2.46875 2.046875 -2.1875 L 2.796875 -2 C 3.34375 -1.875 3.5625 -1.671875 3.5625 -1.3125 C 3.5625 -0.828125 3.09375 -0.515625 2.390625 -0.515625 C 1.96875 -0.515625 1.609375 -0.640625 1.40625 -0.859375 C 1.28125 -1 1.21875 -1.140625 1.171875 -1.5 L 0.328125 -1.5 C 0.359375 -0.328125 1.015625 0.21875 2.328125 0.21875 C 3.59375 0.21875 4.40625 -0.40625 4.40625 -1.375 C 4.40625 -2.125 3.984375 -2.53125 2.984375 -2.765625 L 2.21875 -2.953125 C 1.5625 -3.109375 1.28125 -3.3125 1.28125 -3.671875 C 1.28125 -4.140625 1.703125 -4.4375 2.34375 -4.4375 C 3 -4.4375 3.34375 -4.15625 3.359375 -3.625 Z M 4.203125 -3.625 "/>
</symbol>
<symbol overflow="visible" id="glyph0-24">
<path style="stroke:none;" d="M 3.71875 -5.03125 L 2.328125 -1.109375 L 1.046875 -5.03125 L 0.1875 -5.03125 L 1.890625 0.015625 L 1.578125 0.8125 C 1.453125 1.171875 1.28125 1.3125 0.9375 1.3125 C 0.8125 1.3125 0.6875 1.28125 0.515625 1.25 L 0.515625 1.96875 C 0.6875 2.046875 0.84375 2.09375 1.0625 2.09375 C 1.3125 2.09375 1.59375 2 1.796875 1.859375 C 2.046875 1.671875 2.203125 1.453125 2.34375 1.0625 L 4.578125 -5.03125 Z M 3.71875 -5.03125 "/>
</symbol>
<symbol overflow="visible" id="glyph0-25">
<path style="stroke:none;" d="M 3.1875 -7 L 3.1875 -2.078125 C 3.1875 -1.515625 3.140625 -1.203125 2.96875 -0.953125 C 2.796875 -0.6875 2.46875 -0.53125 2.125 -0.53125 C 1.453125 -0.53125 1.078125 -0.984375 1.078125 -1.796875 L 1.078125 -2.25 L 0.15625 -2.25 L 0.15625 -1.625 C 0.15625 -0.5 0.90625 0.21875 2.109375 0.21875 C 3.328125 0.21875 4.09375 -0.53125 4.09375 -1.75 L 4.09375 -7 Z M 3.1875 -7 "/>
</symbol>
<symbol overflow="visible" id="glyph0-26">
<path style="stroke:none;" d="M 1.453125 -7 L 0.65625 -7 L 0.65625 0 L 1.453125 0 Z M 1.453125 -7 "/>
</symbol>
<symbol overflow="visible" id="glyph0-27">
<path style="stroke:none;" d="M 2.046875 -1 L 1.0625 -1 L 1.0625 0 L 2.046875 0 Z M 2.046875 -5.03125 L 1.0625 -5.03125 L 1.0625 -4.03125 L 2.046875 -4.03125 Z M 2.046875 -5.03125 "/>
</symbol>
<symbol overflow="visible" id="glyph0-28">
<path style="stroke:none;" d="M 6.34375 -4.828125 C 6.078125 -6.359375 5.1875 -7.109375 3.65625 -7.109375 C 2.71875 -7.109375 1.953125 -6.8125 1.4375 -6.234375 C 0.8125 -5.546875 0.453125 -4.546875 0.453125 -3.421875 C 0.453125 -2.265625 0.8125 -1.28125 1.46875 -0.59375 C 2.015625 -0.03125 2.703125 0.21875 3.609375 0.21875 C 5.328125 0.21875 6.28125 -0.703125 6.5 -2.546875 L 5.578125 -2.546875 C 5.5 -2.078125 5.40625 -1.75 5.25 -1.46875 C 4.96875 -0.890625 4.375 -0.5625 3.625 -0.5625 C 2.234375 -0.5625 1.359375 -1.671875 1.359375 -3.421875 C 1.359375 -5.21875 2.1875 -6.328125 3.546875 -6.328125 C 4.109375 -6.328125 4.640625 -6.15625 4.9375 -5.875 C 5.1875 -5.640625 5.328125 -5.359375 5.4375 -4.828125 Z M 6.34375 -4.828125 "/>
</symbol>
<symbol overflow="visible" id="glyph0-29">
<path style="stroke:none;" d="M 1.75 -3.1875 L 5.5625 -3.1875 L 5.5625 -3.96875 L 1.75 -3.96875 L 1.75 -6.203125 L 5.703125 -6.203125 L 5.703125 -7 L 0.859375 -7 L 0.859375 0 L 5.875 0 L 5.875 -0.78125 L 1.75 -0.78125 Z M 1.75 -3.1875 "/>
</symbol>
<symbol overflow="visible" id="glyph0-30">
<path style="stroke:none;" d="M 2.265625 -7 C 1.3125 -5.734375 0.703125 -3.984375 0.703125 -2.484375 C 0.703125 -0.96875 1.3125 0.78125 2.265625 2.03125 L 2.796875 2.03125 C 1.953125 0.65625 1.484375 -0.953125 1.484375 -2.484375 C 1.484375 -4.015625 1.953125 -5.625 2.796875 -7 Z M 2.265625 -7 "/>
</symbol>
<symbol overflow="visible" id="glyph0-31">
<path style="stroke:none;" d="M 0.515625 -7 L 0.515625 0 L 1.234375 0 L 1.234375 -0.640625 C 1.625 -0.0625 2.125 0.21875 2.828125 0.21875 C 4.15625 0.21875 5.015625 -0.859375 5.015625 -2.53125 C 5.015625 -4.15625 4.203125 -5.171875 2.875 -5.171875 C 2.171875 -5.171875 1.6875 -4.90625 1.3125 -4.34375 L 1.3125 -7 Z M 2.71875 -4.421875 C 3.609375 -4.421875 4.1875 -3.640625 4.1875 -2.453125 C 4.1875 -1.3125 3.59375 -0.53125 2.71875 -0.53125 C 1.859375 -0.53125 1.3125 -1.296875 1.3125 -2.46875 C 1.3125 -3.65625 1.859375 -4.421875 2.71875 -4.421875 Z M 2.71875 -4.421875 "/>
</symbol>
<symbol overflow="visible" id="glyph0-32">
<path style="stroke:none;" d="M 1.828125 -1 L 0.828125 -1 L 0.828125 0 L 1.828125 0 Z M 1.828125 -1 "/>
</symbol>
<symbol overflow="visible" id="glyph0-33">
<path style="stroke:none;" d="M 4.515625 -3.34375 C 4.484375 -3.828125 4.375 -4.140625 4.1875 -4.421875 C 3.84375 -4.890625 3.234375 -5.171875 2.53125 -5.171875 C 1.171875 -5.171875 0.296875 -4.09375 0.296875 -2.421875 C 0.296875 -0.8125 1.15625 0.21875 2.515625 0.21875 C 3.71875 0.21875 4.484375 -0.5 4.578125 -1.734375 L 3.765625 -1.734375 C 3.640625 -0.921875 3.21875 -0.515625 2.546875 -0.515625 C 1.65625 -0.515625 1.125 -1.234375 1.125 -2.421875 C 1.125 -3.6875 1.65625 -4.4375 2.515625 -4.4375 C 3.1875 -4.4375 3.609375 -4.03125 3.71875 -3.34375 Z M 4.515625 -3.34375 "/>
</symbol>
<symbol overflow="visible" id="glyph0-34">
<path style="stroke:none;" d="M 2.609375 -5.171875 C 1.1875 -5.171875 0.34375 -4.15625 0.34375 -2.46875 C 0.34375 -0.78125 1.1875 0.21875 2.625 0.21875 C 4.03125 0.21875 4.890625 -0.78125 4.890625 -2.4375 C 4.890625 -4.1875 4.0625 -5.171875 2.609375 -5.171875 Z M 2.625 -4.4375 C 3.515625 -4.4375 4.0625 -3.6875 4.0625 -2.453125 C 4.0625 -1.25 3.5 -0.515625 2.625 -0.515625 C 1.734375 -0.515625 1.1875 -1.25 1.1875 -2.46875 C 1.1875 -3.6875 1.734375 -4.4375 2.625 -4.4375 Z M 2.625 -4.4375 "/>
</symbol>
<symbol overflow="visible" id="glyph0-35">
<path style="stroke:none;" d="M 0.671875 -5.03125 L 0.671875 0 L 1.484375 0 L 1.484375 -3.15625 C 1.484375 -3.890625 2 -4.46875 2.65625 -4.46875 C 3.25 -4.46875 3.59375 -4.109375 3.59375 -3.46875 L 3.59375 0 L 4.390625 0 L 4.390625 -3.15625 C 4.390625 -3.890625 4.921875 -4.46875 5.578125 -4.46875 C 6.15625 -4.46875 6.5 -4.09375 6.5 -3.46875 L 6.5 0 L 7.3125 0 L 7.3125 -3.765625 C 7.3125 -4.671875 6.796875 -5.171875 5.859375 -5.171875 C 5.1875 -5.171875 4.78125 -4.96875 4.3125 -4.40625 C 4.015625 -4.9375 3.609375 -5.171875 2.953125 -5.171875 C 2.28125 -5.171875 1.828125 -4.921875 1.40625 -4.3125 L 1.40625 -5.03125 Z M 0.671875 -5.03125 "/>
</symbol>
<symbol overflow="visible" id="glyph0-36">
<path style="stroke:none;" d="M 2.203125 -7 L -0.078125 0.1875 L 0.453125 0.1875 L 2.71875 -7 Z M 2.203125 -7 "/>
</symbol>
<symbol overflow="visible" id="glyph0-37">
<path style="stroke:none;" d="M 1.359375 -7 L 0.5625 -7 L 0.5625 0 L 1.359375 0 L 1.359375 -1.953125 L 2.125 -2.71875 L 3.828125 0 L 4.8125 0 L 2.765625 -3.296875 L 4.515625 -5.03125 L 3.484375 -5.03125 L 1.359375 -2.890625 Z M 1.359375 -7 "/>
</symbol>
<symbol overflow="visible" id="glyph0-38">
<path style="stroke:none;" d="M 0.890625 2.03125 C 1.859375 0.78125 2.453125 -0.96875 2.453125 -2.46875 C 2.453125 -3.984375 1.859375 -5.734375 0.890625 -7 L 0.359375 -7 C 1.203125 -5.625 1.671875 -4.015625 1.671875 -2.46875 C 1.671875 -0.953125 1.203125 0.671875 0.359375 2.03125 Z M 0.890625 2.03125 "/>
</symbol>
<symbol overflow="visible" id="glyph1-0">
<path style="stroke:none;" d=""/>
</symbol>
<symbol overflow="visible" id="glyph1-1">
<path style="stroke:none;" d="M 1.734375 -4.703125 L 3.71875 -3.71875 L 4.4375 -4.4375 L -2.25 -7.65625 L -3.078125 -6.828125 L 0.109375 -0.109375 L 0.78125 -0.78125 L -0.171875 -2.796875 Z M 1.015625 -5.046875 L -0.546875 -3.484375 L -1.984375 -6.546875 Z M 1.015625 -5.046875 "/>
</symbol>
<symbol overflow="visible" id="glyph1-2">
<path style="stroke:none;" d="M 3.265625 -3.265625 L -0.296875 -6.828125 L -0.859375 -6.265625 L 1.171875 -4.234375 C 1.890625 -3.515625 1.984375 -2.671875 1.390625 -2.078125 C 0.953125 -1.640625 0.390625 -1.609375 -0.03125 -2.03125 L -2.5625 -4.5625 L -3.125 -4 L -0.375 -1.25 C 0.21875 -0.65625 1.046875 -0.734375 1.71875 -1.40625 C 2.25 -1.9375 2.421875 -2.453125 2.265625 -3.265625 L 2.765625 -2.765625 Z M 3.265625 -3.265625 "/>
</symbol>
<symbol overflow="visible" id="glyph1-3">
<path style="stroke:none;" d="M -0.828125 -6.296875 L -0.296875 -5.765625 C -1.015625 -5.921875 -1.515625 -5.796875 -1.96875 -5.34375 C -2.8125 -4.5 -2.609375 -3.078125 -1.484375 -1.953125 C -0.875 -1.34375 -0.3125 -1.0625 0.359375 -1.015625 C 0.9375 -0.96875 1.453125 -1.140625 1.8125 -1.5 C 2.234375 -1.921875 2.359375 -2.421875 2.203125 -3.171875 L 2.390625 -2.984375 C 3.34375 -2.03125 3.421875 -1.421875 2.71875 -0.71875 C 2.234375 -0.234375 1.796875 -0.171875 1.328125 -0.515625 L 0.765625 0.046875 C 1.46875 0.65625 2.40625 0.5625 3.1875 -0.21875 C 3.703125 -0.734375 3.96875 -1.34375 3.921875 -1.859375 C 3.859375 -2.453125 3.515625 -3.015625 2.6875 -3.84375 L -0.296875 -6.828125 Z M -1.390625 -4.890625 C -0.796875 -5.484375 0.0625 -5.3125 0.953125 -4.421875 C 1.8125 -3.5625 1.984375 -2.703125 1.390625 -2.109375 C 0.8125 -1.53125 -0.046875 -1.703125 -0.921875 -2.578125 C -1.796875 -3.453125 -1.96875 -4.3125 -1.390625 -4.890625 Z M -1.390625 -4.890625 "/>
</symbol>
<symbol overflow="visible" id="glyph1-4">
<path style="stroke:none;" d="M 0.5625 -7.53125 C 0.21875 -7.875 0.078125 -7.953125 -0.25 -8.0625 C -1.09375 -8.375 -1.953125 -8.109375 -2.796875 -7.265625 C -3.875 -6.1875 -4 -4.9375 -3.109375 -4.046875 C -2.5 -3.4375 -1.796875 -3.390625 -0.96875 -3.875 L 0.578125 -4.765625 C 1.359375 -5.234375 1.90625 -5.25 2.28125 -4.875 C 2.546875 -4.609375 2.671875 -4.203125 2.609375 -3.828125 C 2.5625 -3.5 2.328125 -3.109375 1.921875 -2.703125 C 1.390625 -2.171875 0.890625 -1.953125 0.375 -2 C -0.03125 -2.03125 -0.34375 -2.1875 -0.640625 -2.484375 L -1.234375 -1.890625 C -0.78125 -1.4375 -0.390625 -1.234375 0.078125 -1.171875 C 0.890625 -1.046875 1.6875 -1.375 2.4375 -2.125 C 3.03125 -2.71875 3.359375 -3.328125 3.453125 -3.890625 C 3.515625 -4.484375 3.28125 -5.125 2.84375 -5.5625 C 2.234375 -6.171875 1.40625 -6.25 0.5625 -5.75 L -1 -4.84375 C -1.765625 -4.421875 -2.171875 -4.390625 -2.5625 -4.78125 C -3.0625 -5.28125 -2.953125 -6.046875 -2.296875 -6.703125 C -1.5 -7.5 -0.703125 -7.578125 -0.03125 -6.9375 Z M 0.5625 -7.53125 "/>
</symbol>
<symbol overflow="visible" id="glyph1-5">
<path style="stroke:none;" d="M 1.890625 -5.078125 C 1.359375 -5.609375 0.984375 -5.890625 0.625 -6.0625 C -0.1875 -6.40625 -1.09375 -6.21875 -1.75 -5.5625 C -2.75 -4.5625 -2.625 -3.1875 -1.453125 -2.015625 C -0.265625 -0.828125 1.046875 -0.734375 2.046875 -1.734375 C 2.859375 -2.546875 2.953125 -3.578125 2.328125 -4.484375 L 1.765625 -3.921875 C 2.078125 -3.296875 2 -2.71875 1.546875 -2.265625 C 1.1875 -1.90625 0.703125 -1.765625 0.21875 -1.875 C -0.109375 -1.953125 -0.359375 -2.109375 -0.734375 -2.453125 Z M -1.171875 -2.921875 C -1.78125 -3.625 -1.8125 -4.46875 -1.25 -5.03125 C -0.671875 -5.609375 0.1875 -5.5625 0.828125 -4.921875 Z M -1.171875 -2.921875 "/>
</symbol>
<symbol overflow="visible" id="glyph1-6">
<path style="stroke:none;" d="M 1.84375 1.125 L 2.421875 0.546875 L 0.5625 -1.3125 C 1.21875 -1.25 1.71875 -1.40625 2.1875 -1.875 C 3.109375 -2.796875 2.96875 -4.125 1.828125 -5.265625 C 0.640625 -6.453125 -0.6875 -6.625 -1.640625 -5.671875 C -2.125 -5.1875 -2.28125 -4.59375 -2.125 -3.90625 L -2.671875 -4.453125 L -3.203125 -3.921875 Z M -1.203125 -5.046875 C -0.578125 -5.671875 0.390625 -5.546875 1.234375 -4.703125 C 2.046875 -3.890625 2.171875 -2.921875 1.546875 -2.296875 C 0.953125 -1.703125 0.015625 -1.859375 -0.8125 -2.6875 C -1.640625 -3.515625 -1.796875 -4.453125 -1.203125 -5.046875 Z M -1.203125 -5.046875 "/>
</symbol>
<symbol overflow="visible" id="glyph1-7">
<path style="stroke:none;" d="M -2.390625 -7.671875 C -3.8125 -6.25 -3.734375 -4.234375 -2.1875 -2.6875 C -0.640625 -1.140625 1.375 -1.0625 2.796875 -2.484375 C 3.40625 -3.09375 3.765625 -3.796875 3.8125 -4.53125 C 3.90625 -5.53125 3.4375 -6.625 2.640625 -7.421875 C 1.046875 -9.015625 -0.9375 -9.125 -2.390625 -7.671875 Z M -1.828125 -7.109375 C -0.75 -8.1875 0.71875 -8.0625 1.984375 -6.796875 C 3.171875 -5.609375 3.296875 -4.078125 2.25 -3.03125 C 1.203125 -1.984375 -0.328125 -2.109375 -1.546875 -3.328125 C -2.765625 -4.546875 -2.875 -6.0625 -1.828125 -7.109375 Z M -1.828125 -7.109375 "/>
</symbol>
<symbol overflow="visible" id="glyph1-8">
<path style="stroke:none;" d="M 0.828125 -5.546875 C 0.46875 -5.875 0.171875 -6.015625 -0.15625 -6.09375 C -0.734375 -6.171875 -1.375 -5.9375 -1.859375 -5.453125 C -2.828125 -4.484375 -2.6875 -3.09375 -1.515625 -1.921875 C -0.375 -0.78125 0.96875 -0.65625 1.9375 -1.625 C 2.78125 -2.46875 2.8125 -3.53125 2.015625 -4.453125 L 1.4375 -3.875 C 1.921875 -3.234375 1.921875 -2.640625 1.4375 -2.15625 C 0.8125 -1.53125 -0.078125 -1.671875 -0.921875 -2.515625 C -1.8125 -3.40625 -1.96875 -4.3125 -1.359375 -4.921875 C -0.890625 -5.390625 -0.296875 -5.390625 0.265625 -4.984375 Z M 0.828125 -5.546875 "/>
</symbol>
<symbol overflow="visible" id="glyph1-9">
<path style="stroke:none;" d="M -1.84375 -5.28125 L -2.421875 -4.703125 L -3.390625 -5.671875 L -3.953125 -5.109375 L -2.984375 -4.140625 L -3.46875 -3.65625 L -3 -3.1875 L -2.515625 -3.671875 L 0.171875 -0.984375 C 0.53125 -0.625 0.96875 -0.65625 1.421875 -1.109375 C 1.578125 -1.265625 1.671875 -1.390625 1.828125 -1.609375 L 1.359375 -2.078125 C 1.296875 -1.984375 1.21875 -1.90625 1.109375 -1.796875 C 0.859375 -1.546875 0.734375 -1.546875 0.484375 -1.796875 L -1.953125 -4.234375 L -1.375 -4.8125 Z M -1.84375 -5.28125 "/>
</symbol>
<symbol overflow="visible" id="glyph1-10">
<path style="stroke:none;" d="M -0.5625 -9.34375 L -1.15625 -8.75 L 2.890625 -4.703125 L -3.75 -6.15625 L -4.4375 -5.46875 L 0.515625 -0.515625 L 1.109375 -1.109375 L -2.90625 -5.125 L 3.671875 -3.671875 L 4.390625 -4.390625 Z M -0.5625 -9.34375 "/>
</symbol>
<symbol overflow="visible" id="glyph1-11">
<path style="stroke:none;" d="M -1.8125 -5.5 C -2.8125 -4.5 -2.6875 -3.1875 -1.5 -2 C -0.296875 -0.796875 1 -0.6875 2.015625 -1.703125 C 3 -2.6875 2.90625 -4 1.734375 -5.171875 C 0.484375 -6.421875 -0.78125 -6.53125 -1.8125 -5.5 Z M -1.28125 -5 C -0.65625 -5.625 0.265625 -5.484375 1.140625 -4.609375 C 1.984375 -3.765625 2.109375 -2.828125 1.5 -2.21875 C 0.859375 -1.578125 -0.046875 -1.734375 -0.90625 -2.59375 C -1.765625 -3.453125 -1.921875 -4.359375 -1.28125 -5 Z M -1.28125 -5 "/>
</symbol>
<symbol overflow="visible" id="glyph1-12">
<path style="stroke:none;" d="M 1.9375 -1.9375 L -0.265625 -6.859375 L -0.90625 -6.21875 L 0.984375 -2.328125 L -2.859375 -4.265625 L -3.5 -3.625 L 1.3125 -1.3125 Z M 1.9375 -1.9375 "/>
</symbol>
<symbol overflow="visible" id="glyph1-13">
<path style="stroke:none;" d="M 0.609375 -0.609375 L 2.515625 -2.515625 C 3.75 -3.75 3.59375 -5.46875 2.0625 -7 C 0.515625 -8.546875 -1.1875 -8.71875 -2.4375 -7.46875 L -4.34375 -5.5625 Z M 0.6875 -1.78125 L -3.15625 -5.625 L -2 -6.78125 C -1.015625 -7.765625 0.15625 -7.625 1.421875 -6.359375 C 2.671875 -5.109375 2.828125 -3.921875 1.84375 -2.9375 Z M 0.6875 -1.78125 "/>
</symbol>
<symbol overflow="visible" id="glyph1-14">
<path style="stroke:none;" d="M -2.703125 -7.203125 L 0.78125 -3.71875 C 1.171875 -3.328125 1.375 -3.0625 1.421875 -2.765625 C 1.5 -2.46875 1.375 -2.125 1.125 -1.875 C 0.65625 -1.40625 0.0625 -1.46875 -0.5 -2.03125 L -0.828125 -2.359375 L -1.484375 -1.703125 L -1.046875 -1.265625 C -0.25 -0.46875 0.796875 -0.484375 1.640625 -1.328125 C 2.515625 -2.203125 2.515625 -3.265625 1.65625 -4.125 L -2.0625 -7.84375 Z M -2.703125 -7.203125 "/>
</symbol>
<symbol overflow="visible" id="glyph1-15">
<path style="stroke:none;" d="M 3.296875 -3.953125 C 3.234375 -3.890625 3.21875 -3.875 3.171875 -3.828125 C 2.984375 -3.640625 2.78125 -3.625 2.609375 -3.796875 L 0.515625 -5.890625 C -0.109375 -6.515625 -0.921875 -6.390625 -1.796875 -5.515625 C -2.3125 -5 -2.578125 -4.421875 -2.546875 -3.921875 C -2.546875 -3.578125 -2.390625 -3.296875 -2.078125 -2.953125 L -1.515625 -3.515625 C -1.875 -4 -1.828125 -4.453125 -1.296875 -4.984375 C -0.78125 -5.5 -0.296875 -5.578125 0.03125 -5.25 L 0.1875 -5.09375 C 0.421875 -4.828125 0.390625 -4.640625 -0.015625 -4.109375 C -0.703125 -3.203125 -0.8125 -3.0625 -0.9375 -2.75 C -1.171875 -2.171875 -1.078125 -1.640625 -0.609375 -1.171875 C 0.03125 -0.53125 0.890625 -0.578125 1.609375 -1.296875 C 2.0625 -1.75 2.25 -2.25 2.296875 -3.015625 C 2.703125 -2.703125 3.03125 -2.71875 3.390625 -3.078125 C 3.53125 -3.21875 3.578125 -3.296875 3.71875 -3.53125 Z M 1.53125 -3.75 C 1.71875 -3.5625 1.765625 -3.390625 1.765625 -3.078125 C 1.734375 -2.640625 1.5625 -2.25 1.21875 -1.90625 C 0.796875 -1.484375 0.328125 -1.421875 -0.03125 -1.78125 C -0.40625 -2.15625 -0.359375 -2.578125 0.171875 -3.296875 C 0.6875 -3.96875 0.78125 -4.125 0.890625 -4.390625 Z M 1.53125 -3.75 "/>
</symbol>
<symbol overflow="visible" id="glyph1-16">
<path style="stroke:none;" d="M -3.09375 -4.03125 L 0.46875 -0.46875 L 1.046875 -1.046875 L -0.90625 -3 C -1.640625 -3.734375 -1.734375 -4.578125 -1.140625 -5.171875 C -0.703125 -5.609375 -0.15625 -5.625 0.265625 -5.203125 L 2.734375 -2.734375 L 3.296875 -3.296875 L 0.609375 -5.984375 C 0.015625 -6.578125 -0.796875 -6.515625 -1.484375 -5.828125 C -2.015625 -5.296875 -2.140625 -4.765625 -1.96875 -3.96875 L -2.5625 -4.5625 Z M -3.09375 -4.03125 "/>
</symbol>
<symbol overflow="visible" id="glyph1-17">
<path style="stroke:none;" d="M -1.015625 -3.484375 L 1.359375 -5.859375 L 0.796875 -6.421875 L -1.578125 -4.046875 L -3.15625 -5.625 L -0.453125 -8.328125 L -1.015625 -8.890625 L -4.34375 -5.5625 L 0.609375 -0.609375 L 1.234375 -1.234375 Z M -1.015625 -3.484375 "/>
</symbol>
<symbol overflow="visible" id="glyph1-18">
<path style="stroke:none;" d="M -4.59375 -5.3125 L 0.359375 -0.359375 L 0.875 -0.875 L 0.421875 -1.328125 C 1.109375 -1.203125 1.65625 -1.34375 2.15625 -1.84375 C 3.09375 -2.78125 2.9375 -4.15625 1.75 -5.34375 C 0.609375 -6.484375 -0.6875 -6.625 -1.625 -5.6875 C -2.125 -5.1875 -2.28125 -4.65625 -2.15625 -4 L -4.03125 -5.875 Z M -1.203125 -5.046875 C -0.578125 -5.671875 0.390625 -5.546875 1.234375 -4.703125 C 2.046875 -3.890625 2.171875 -2.921875 1.546875 -2.296875 C 0.9375 -1.6875 0 -1.84375 -0.828125 -2.671875 C -1.65625 -3.5 -1.8125 -4.4375 -1.203125 -5.046875 Z M -1.203125 -5.046875 "/>
</symbol>
<symbol overflow="visible" id="glyph1-19">
<path style="stroke:none;" d="M 3.171875 -3.171875 L 0.421875 -8.703125 L 4.5625 -4.5625 L 5.15625 -5.15625 L 0.203125 -10.109375 L -0.671875 -9.234375 L 2.203125 -3.484375 L -3.578125 -6.328125 L -4.4375 -5.46875 L 0.515625 -0.515625 L 1.109375 -1.109375 L -3.03125 -5.25 L 2.515625 -2.515625 Z M 3.171875 -3.171875 "/>
</symbol>
<symbol overflow="visible" id="glyph1-20">
<path style="stroke:none;" d="M -3.09375 -4.03125 L 0.46875 -0.46875 L 1.03125 -1.03125 L -0.8125 -2.875 C -1.65625 -3.75 -1.6875 -4.46875 -0.890625 -5.234375 L -1.46875 -5.8125 C -1.5625 -5.71875 -1.625 -5.6875 -1.703125 -5.609375 C -2.0625 -5.25 -2.125 -4.75 -1.90625 -3.90625 L -2.5625 -4.5625 Z M -3.09375 -4.03125 "/>
</symbol>
<symbol overflow="visible" id="glyph1-21">
<path style="stroke:none;" d="M -0.9375 -6.1875 L 0.859375 -2.421875 L -2.828125 -4.296875 L -3.4375 -3.6875 L 1.359375 -1.328125 L 1.6875 -0.53125 C 1.859375 -0.203125 1.828125 0.015625 1.578125 0.265625 C 1.5 0.34375 1.390625 0.421875 1.25 0.53125 L 1.75 1.03125 C 1.9375 0.96875 2.078125 0.890625 2.234375 0.734375 C 2.40625 0.5625 2.546875 0.296875 2.578125 0.046875 C 2.640625 -0.265625 2.59375 -0.53125 2.40625 -0.90625 L -0.328125 -6.796875 Z M -0.9375 -6.1875 "/>
</symbol>
<symbol overflow="visible" id="glyph1-22">
<path style="stroke:none;" d="M -3.921875 -5.984375 L -4.484375 -5.421875 L 0.46875 -0.46875 L 1.03125 -1.03125 Z M -3.921875 -5.984375 "/>
</symbol>
<symbol overflow="visible" id="glyph2-0">
<path style="stroke:none;" d=""/>
</symbol>
<symbol overflow="visible" id="glyph2-1">
<path style="stroke:none;" d="M -8.75 -2.828125 C -7.171875 -1.625 -4.984375 -0.875 -3.109375 -0.875 C -1.21875 -0.875 0.96875 -1.625 2.546875 -2.828125 L 2.546875 -3.484375 C 0.828125 -2.4375 -1.1875 -1.84375 -3.109375 -1.84375 C -5.015625 -1.84375 -7.046875 -2.4375 -8.75 -3.484375 Z M -8.75 -2.828125 "/>
</symbol>
<symbol overflow="visible" id="glyph2-2">
<path style="stroke:none;" d="M -8.21875 -2.390625 C -8.21875 -1.265625 -7.296875 -0.34375 -6.171875 -0.34375 C -5.046875 -0.34375 -4.109375 -1.265625 -4.109375 -2.40625 C -4.109375 -3.515625 -5.046875 -4.4375 -6.140625 -4.4375 C -7.3125 -4.4375 -8.21875 -3.546875 -8.21875 -2.390625 Z M -7.375 -2.390625 C -7.375 -3.078125 -6.84375 -3.609375 -6.15625 -3.609375 C -5.5 -3.609375 -4.953125 -3.0625 -4.953125 -2.40625 C -4.953125 -1.734375 -5.5 -1.171875 -6.171875 -1.171875 C -6.84375 -1.171875 -7.375 -1.71875 -7.375 -2.390625 Z M -8.515625 -7.3125 L 0.234375 -2.5625 L 0.234375 -3.359375 L -8.515625 -8.09375 Z M -3.859375 -8.25 C -3.859375 -7.125 -2.953125 -6.21875 -1.828125 -6.21875 C -0.6875 -6.21875 0.234375 -7.125 0.234375 -8.265625 C 0.234375 -9.390625 -0.6875 -10.3125 -1.796875 -10.3125 C -2.953125 -10.3125 -3.859375 -9.40625 -3.859375 -8.25 Z M -3.03125 -8.25 C -3.03125 -8.9375 -2.484375 -9.484375 -1.796875 -9.484375 C -1.15625 -9.484375 -0.609375 -8.921875 -0.609375 -8.265625 C -0.609375 -7.578125 -1.15625 -7.046875 -1.828125 -7.046875 C -2.484375 -7.046875 -3.03125 -7.578125 -3.03125 -8.25 Z M -3.03125 -8.25 "/>
</symbol>
<symbol overflow="visible" id="glyph2-3">
<path style="stroke:none;" d="M 2.546875 -1.109375 C 0.96875 -2.3125 -1.21875 -3.078125 -3.09375 -3.078125 C -4.984375 -3.078125 -7.171875 -2.3125 -8.75 -1.109375 L -8.75 -0.453125 C -7.03125 -1.515625 -5.015625 -2.09375 -3.09375 -2.09375 C -1.1875 -2.09375 0.84375 -1.515625 2.546875 -0.453125 Z M 2.546875 -1.109375 "/>
</symbol>
<symbol overflow="visible" id="glyph3-0">
<path style="stroke:none;" d=""/>
</symbol>
<symbol overflow="visible" id="glyph3-1">
<path style="stroke:none;" d="M 5.65625 -4.171875 C 5.609375 -4.78125 5.46875 -5.1875 5.234375 -5.53125 C 4.796875 -6.125 4.046875 -6.46875 3.171875 -6.46875 C 1.46875 -6.46875 0.375 -5.125 0.375 -3.03125 C 0.375 -1.015625 1.453125 0.28125 3.15625 0.28125 C 4.65625 0.28125 5.609375 -0.625 5.71875 -2.15625 L 4.71875 -2.15625 C 4.546875 -1.15625 4.03125 -0.640625 3.1875 -0.640625 C 2.078125 -0.640625 1.421875 -1.546875 1.421875 -3.03125 C 1.421875 -4.609375 2.0625 -5.546875 3.15625 -5.546875 C 4 -5.546875 4.53125 -5.046875 4.640625 -4.171875 Z M 5.65625 -4.171875 "/>
</symbol>
<symbol overflow="visible" id="glyph3-2">
<path style="stroke:none;" d="M 0.84375 -8.75 L 0.84375 0 L 1.84375 0 L 1.84375 -3.46875 C 1.84375 -4.75 2.515625 -5.59375 3.546875 -5.59375 C 3.875 -5.59375 4.1875 -5.5 4.421875 -5.3125 C 4.71875 -5.09375 4.84375 -4.796875 4.84375 -4.359375 L 4.84375 0 L 5.828125 0 L 5.828125 -4.75 C 5.828125 -5.8125 5.078125 -6.46875 3.859375 -6.46875 C 2.96875 -6.46875 2.421875 -6.1875 1.84375 -5.421875 L 1.84375 -8.75 Z M 0.84375 -8.75 "/>
</symbol>
<symbol overflow="visible" id="glyph3-3">
<path style="stroke:none;" d="M 6.421875 -0.59375 C 6.3125 -0.5625 6.265625 -0.5625 6.203125 -0.5625 C 5.859375 -0.5625 5.65625 -0.75 5.65625 -1.0625 L 5.65625 -4.75 C 5.65625 -5.875 4.84375 -6.46875 3.296875 -6.46875 C 2.375 -6.46875 1.640625 -6.203125 1.21875 -5.734375 C 0.921875 -5.40625 0.796875 -5.046875 0.78125 -4.421875 L 1.78125 -4.421875 C 1.875 -5.203125 2.328125 -5.546875 3.265625 -5.546875 C 4.171875 -5.546875 4.671875 -5.203125 4.671875 -4.609375 L 4.671875 -4.34375 C 4.65625 -3.90625 4.4375 -3.75 3.625 -3.640625 C 2.203125 -3.46875 1.984375 -3.421875 1.609375 -3.265625 C 0.875 -2.953125 0.5 -2.40625 0.5 -1.578125 C 0.5 -0.4375 1.296875 0.28125 2.5625 0.28125 C 3.359375 0.28125 4 0 4.703125 -0.640625 C 4.78125 0 5.09375 0.28125 5.734375 0.28125 C 5.953125 0.28125 6.078125 0.25 6.421875 0.171875 Z M 4.671875 -1.984375 C 4.671875 -1.640625 4.578125 -1.4375 4.265625 -1.15625 C 3.859375 -0.796875 3.375 -0.59375 2.78125 -0.59375 C 2 -0.59375 1.546875 -0.96875 1.546875 -1.609375 C 1.546875 -2.265625 1.984375 -2.609375 3.0625 -2.765625 C 4.125 -2.90625 4.328125 -2.953125 4.671875 -3.109375 Z M 4.671875 -1.984375 "/>
</symbol>
<symbol overflow="visible" id="glyph3-4">
<path style="stroke:none;" d="M 0.84375 -6.28125 L 0.84375 0 L 1.84375 0 L 1.84375 -3.46875 C 1.84375 -4.75 2.515625 -5.59375 3.546875 -5.59375 C 4.34375 -5.59375 4.84375 -5.109375 4.84375 -4.359375 L 4.84375 0 L 5.84375 0 L 5.84375 -4.75 C 5.84375 -5.796875 5.0625 -6.46875 3.859375 -6.46875 C 2.921875 -6.46875 2.3125 -6.109375 1.765625 -5.234375 L 1.765625 -6.28125 Z M 0.84375 -6.28125 "/>
</symbol>
<symbol overflow="visible" id="glyph3-5">
<path style="stroke:none;" d="M 4.84375 -6.28125 L 4.84375 -5.375 C 4.34375 -6.125 3.796875 -6.46875 3 -6.46875 C 1.46875 -6.46875 0.421875 -5.046875 0.421875 -3.03125 C 0.421875 -1.984375 0.671875 -1.21875 1.21875 -0.578125 C 1.6875 -0.03125 2.28125 0.28125 2.921875 0.28125 C 3.6875 0.28125 4.21875 -0.0625 4.75 -0.859375 L 4.75 -0.53125 C 4.75 1.15625 4.28125 1.78125 3.03125 1.78125 C 2.1875 1.78125 1.734375 1.4375 1.640625 0.71875 L 0.625 0.71875 C 0.71875 1.890625 1.640625 2.609375 3.015625 2.609375 C 3.9375 2.609375 4.703125 2.3125 5.109375 1.8125 C 5.59375 1.21875 5.765625 0.4375 5.765625 -1.03125 L 5.765625 -6.28125 Z M 3.09375 -5.546875 C 4.15625 -5.546875 4.75 -4.65625 4.75 -3.0625 C 4.75 -1.53125 4.140625 -0.640625 3.09375 -0.640625 C 2.0625 -0.640625 1.46875 -1.546875 1.46875 -3.09375 C 1.46875 -4.625 2.0625 -5.546875 3.09375 -5.546875 Z M 3.09375 -5.546875 "/>
</symbol>
<symbol overflow="visible" id="glyph3-6">
<path style="stroke:none;" d="M 6.15625 -2.8125 C 6.15625 -3.765625 6.078125 -4.34375 5.90625 -4.8125 C 5.5 -5.84375 4.53125 -6.46875 3.359375 -6.46875 C 1.609375 -6.46875 0.484375 -5.140625 0.484375 -3.0625 C 0.484375 -0.984375 1.5625 0.28125 3.34375 0.28125 C 4.78125 0.28125 5.765625 -0.546875 6.03125 -1.90625 L 5.015625 -1.90625 C 4.734375 -1.078125 4.171875 -0.640625 3.375 -0.640625 C 2.734375 -0.640625 2.203125 -0.9375 1.859375 -1.46875 C 1.625 -1.828125 1.53125 -2.1875 1.53125 -2.8125 Z M 1.546875 -3.625 C 1.625 -4.78125 2.34375 -5.546875 3.34375 -5.546875 C 4.375 -5.546875 5.078125 -4.75 5.078125 -3.625 Z M 1.546875 -3.625 "/>
</symbol>
</g>
<clipPath id="clip1">
  <path d="M 48.347656 5.976562 L 498.023438 5.976562 L 498.023438 271.675781 L 48.347656 271.675781 Z M 48.347656 5.976562 "/>
</clipPath>
<clipPath id="clip2">
  <path d="M 48.347656 229 L 498.023438 229 L 498.023438 231 L 48.347656 231 Z M 48.347656 229 "/>
</clipPath>
<clipPath id="clip3">
  <path d="M 48.347656 184 L 498.023438 184 L 498.023438 185 L 48.347656 185 Z M 48.347656 184 "/>
</clipPath>
<clipPath id="clip4">
  <path d="M 48.347656 138 L 498.023438 138 L 498.023438 140 L 48.347656 140 Z M 48.347656 138 "/>
</clipPath>
<clipPath id="clip5">
  <path d="M 48.347656 93 L 498.023438 93 L 498.023438 94 L 48.347656 94 Z M 48.347656 93 "/>
</clipPath>
<clipPath id="clip6">
  <path d="M 48.347656 47 L 498.023438 47 L 498.023438 49 L 48.347656 49 Z M 48.347656 47 "/>
</clipPath>
<clipPath id="clip7">
  <path d="M 64 5.976562 L 66 5.976562 L 66 271.675781 L 64 271.675781 Z M 64 5.976562 "/>
</clipPath>
<clipPath id="clip8">
  <path d="M 99 5.976562 L 100 5.976562 L 100 271.675781 L 99 271.675781 Z M 99 5.976562 "/>
</clipPath>
<clipPath id="clip9">
  <path d="M 133 5.976562 L 135 5.976562 L 135 271.675781 L 133 271.675781 Z M 133 5.976562 "/>
</clipPath>
<clipPath id="clip10">
  <path d="M 167 5.976562 L 169 5.976562 L 169 271.675781 L 167 271.675781 Z M 167 5.976562 "/>
</clipPath>
<clipPath id="clip11">
  <path d="M 202 5.976562 L 203 5.976562 L 203 271.675781 L 202 271.675781 Z M 202 5.976562 "/>
</clipPath>
<clipPath id="clip12">
  <path d="M 236 5.976562 L 237 5.976562 L 237 271.675781 L 236 271.675781 Z M 236 5.976562 "/>
</clipPath>
<clipPath id="clip13">
  <path d="M 271 5.976562 L 272 5.976562 L 272 271.675781 L 271 271.675781 Z M 271 5.976562 "/>
</clipPath>
<clipPath id="clip14">
  <path d="M 304 5.976562 L 306 5.976562 L 306 271.675781 L 304 271.675781 Z M 304 5.976562 "/>
</clipPath>
<clipPath id="clip15">
  <path d="M 338 5.976562 L 340 5.976562 L 340 271.675781 L 338 271.675781 Z M 338 5.976562 "/>
</clipPath>
<clipPath id="clip16">
  <path d="M 372 5.976562 L 374 5.976562 L 374 271.675781 L 372 271.675781 Z M 372 5.976562 "/>
</clipPath>
<clipPath id="clip17">
  <path d="M 407 5.976562 L 408 5.976562 L 408 271.675781 L 407 271.675781 Z M 407 5.976562 "/>
</clipPath>
<clipPath id="clip18">
  <path d="M 441 5.976562 L 442 5.976562 L 442 271.675781 L 441 271.675781 Z M 441 5.976562 "/>
</clipPath>
<clipPath id="clip19">
  <path d="M 475 5.976562 L 477 5.976562 L 477 271.675781 L 475 271.675781 Z M 475 5.976562 "/>
</clipPath>
<clipPath id="clip20">
  <path d="M 48.347656 252 L 498.023438 252 L 498.023438 254 L 48.347656 254 Z M 48.347656 252 "/>
</clipPath>
<clipPath id="clip21">
  <path d="M 48.347656 206 L 498.023438 206 L 498.023438 208 L 48.347656 208 Z M 48.347656 206 "/>
</clipPath>
<clipPath id="clip22">
  <path d="M 48.347656 161 L 498.023438 161 L 498.023438 163 L 48.347656 163 Z M 48.347656 161 "/>
</clipPath>
<clipPath id="clip23">
  <path d="M 48.347656 115 L 498.023438 115 L 498.023438 117 L 48.347656 117 Z M 48.347656 115 "/>
</clipPath>
<clipPath id="clip24">
  <path d="M 48.347656 70 L 498.023438 70 L 498.023438 72 L 48.347656 72 Z M 48.347656 70 "/>
</clipPath>
<clipPath id="clip25">
  <path d="M 48.347656 24 L 498.023438 24 L 498.023438 26 L 48.347656 26 Z M 48.347656 24 "/>
</clipPath>
<clipPath id="clip26">
  <path d="M 81 5.976562 L 83 5.976562 L 83 271.675781 L 81 271.675781 Z M 81 5.976562 "/>
</clipPath>
<clipPath id="clip27">
  <path d="M 116 5.976562 L 118 5.976562 L 118 271.675781 L 116 271.675781 Z M 116 5.976562 "/>
</clipPath>
<clipPath id="clip28">
  <path d="M 150 5.976562 L 152 5.976562 L 152 271.675781 L 150 271.675781 Z M 150 5.976562 "/>
</clipPath>
<clipPath id="clip29">
  <path d="M 185 5.976562 L 187 5.976562 L 187 271.675781 L 185 271.675781 Z M 185 5.976562 "/>
</clipPath>
<clipPath id="clip30">
  <path d="M 218 5.976562 L 220 5.976562 L 220 271.675781 L 218 271.675781 Z M 218 5.976562 "/>
</clipPath>
<clipPath id="clip31">
  <path d="M 253 5.976562 L 255 5.976562 L 255 271.675781 L 253 271.675781 Z M 253 5.976562 "/>
</clipPath>
<clipPath id="clip32">
  <path d="M 288 5.976562 L 290 5.976562 L 290 271.675781 L 288 271.675781 Z M 288 5.976562 "/>
</clipPath>
<clipPath id="clip33">
  <path d="M 320 5.976562 L 323 5.976562 L 323 271.675781 L 320 271.675781 Z M 320 5.976562 "/>
</clipPath>
<clipPath id="clip34">
  <path d="M 355 5.976562 L 357 5.976562 L 357 271.675781 L 355 271.675781 Z M 355 5.976562 "/>
</clipPath>
<clipPath id="clip35">
  <path d="M 389 5.976562 L 391 5.976562 L 391 271.675781 L 389 271.675781 Z M 389 5.976562 "/>
</clipPath>
<clipPath id="clip36">
  <path d="M 424 5.976562 L 426 5.976562 L 426 271.675781 L 424 271.675781 Z M 424 5.976562 "/>
</clipPath>
<clipPath id="clip37">
  <path d="M 457 5.976562 L 460 5.976562 L 460 271.675781 L 457 271.675781 Z M 457 5.976562 "/>
</clipPath>
<clipPath id="clip38">
  <path d="M 492 5.976562 L 494 5.976562 L 494 271.675781 L 492 271.675781 Z M 492 5.976562 "/>
</clipPath>
<clipPath id="clip39">
  <path d="M 68 5.976562 L 70 5.976562 L 70 271.675781 L 68 271.675781 Z M 68 5.976562 "/>
</clipPath>
<clipPath id="clip40">
  <path d="M 74 5.976562 L 77 5.976562 L 77 271.675781 L 74 271.675781 Z M 74 5.976562 "/>
</clipPath>
<clipPath id="clip41">
  <path d="M 137 5.976562 L 139 5.976562 L 139 271.675781 L 137 271.675781 Z M 137 5.976562 "/>
</clipPath>
<clipPath id="clip42">
  <path d="M 185 5.976562 L 187 5.976562 L 187 271.675781 L 185 271.675781 Z M 185 5.976562 "/>
</clipPath>
<clipPath id="clip43">
  <path d="M 232 5.976562 L 234 5.976562 L 234 271.675781 L 232 271.675781 Z M 232 5.976562 "/>
</clipPath>
<clipPath id="clip44">
  <path d="M 48.347656 5.976562 L 498.023438 5.976562 L 498.023438 271.675781 L 48.347656 271.675781 Z M 48.347656 5.976562 "/>
</clipPath>
</defs>
<g id="surface302">
<rect x="0" y="0" width="504" height="360" style="fill:rgb(100%,100%,100%);fill-opacity:1;stroke:none;"/>
<rect x="0" y="0" width="504" height="360" style="fill:rgb(100%,100%,100%);fill-opacity:1;stroke:none;"/>
<path style="fill:none;stroke-width:1.163976;stroke-linecap:round;stroke-linejoin:round;stroke:rgb(100%,100%,100%);stroke-opacity:1;stroke-miterlimit:10;" d="M 0 360 L 504 360 L 504 0 L 0 0 Z M 0 360 "/>
<g clip-path="url(#clip1)" clip-rule="nonzero">
<path style=" stroke:none;fill-rule:nonzero;fill:rgb(100%,100%,100%);fill-opacity:1;" d="M 48.347656 271.675781 L 498.023438 271.675781 L 498.023438 5.976562 L 48.347656 5.976562 Z M 48.347656 271.675781 "/>
</g>
<g clip-path="url(#clip2)" clip-rule="nonzero">
<path style="fill:none;stroke-width:0.581988;stroke-linecap:butt;stroke-linejoin:round;stroke:rgb(92.156863%,92.156863%,92.156863%);stroke-opacity:1;stroke-miterlimit:10;" d="M 48.347656 230.089844 L 498.023438 230.089844 "/>
</g>
<g clip-path="url(#clip3)" clip-rule="nonzero">
<path style="fill:none;stroke-width:0.581988;stroke-linecap:butt;stroke-linejoin:round;stroke:rgb(92.156863%,92.156863%,92.156863%);stroke-opacity:1;stroke-miterlimit:10;" d="M 48.347656 184.550781 L 498.023438 184.550781 "/>
</g>
<g clip-path="url(#clip4)" clip-rule="nonzero">
<path style="fill:none;stroke-width:0.581988;stroke-linecap:butt;stroke-linejoin:round;stroke:rgb(92.156863%,92.156863%,92.156863%);stroke-opacity:1;stroke-miterlimit:10;" d="M 48.347656 139.011719 L 498.023438 139.011719 "/>
</g>
<g clip-path="url(#clip5)" clip-rule="nonzero">
<path style="fill:none;stroke-width:0.581988;stroke-linecap:butt;stroke-linejoin:round;stroke:rgb(92.156863%,92.156863%,92.156863%);stroke-opacity:1;stroke-miterlimit:10;" d="M 48.347656 93.472656 L 498.023438 93.472656 "/>
</g>
<g clip-path="url(#clip6)" clip-rule="nonzero">
<path style="fill:none;stroke-width:0.581988;stroke-linecap:butt;stroke-linejoin:round;stroke:rgb(92.156863%,92.156863%,92.156863%);stroke-opacity:1;stroke-miterlimit:10;" d="M 48.347656 47.933594 L 498.023438 47.933594 "/>
</g>
<g clip-path="url(#clip7)" clip-rule="nonzero">
<path style="fill:none;stroke-width:0.581988;stroke-linecap:butt;stroke-linejoin:round;stroke:rgb(92.156863%,92.156863%,92.156863%);stroke-opacity:1;stroke-miterlimit:10;" d="M 64.855469 271.675781 L 64.855469 5.976562 "/>
</g>
<g clip-path="url(#clip8)" clip-rule="nonzero">
<path style="fill:none;stroke-width:0.581988;stroke-linecap:butt;stroke-linejoin:round;stroke:rgb(92.156863%,92.156863%,92.156863%);stroke-opacity:1;stroke-miterlimit:10;" d="M 99.671875 271.675781 L 99.671875 5.976562 "/>
</g>
<g clip-path="url(#clip9)" clip-rule="nonzero">
<path style="fill:none;stroke-width:0.581988;stroke-linecap:butt;stroke-linejoin:round;stroke:rgb(92.156863%,92.156863%,92.156863%);stroke-opacity:1;stroke-miterlimit:10;" d="M 133.925781 271.675781 L 133.925781 5.976562 "/>
</g>
<g clip-path="url(#clip10)" clip-rule="nonzero">
<path style="fill:none;stroke-width:0.581988;stroke-linecap:butt;stroke-linejoin:round;stroke:rgb(92.156863%,92.156863%,92.156863%);stroke-opacity:1;stroke-miterlimit:10;" d="M 168.175781 271.675781 L 168.175781 5.976562 "/>
</g>
<g clip-path="url(#clip11)" clip-rule="nonzero">
<path style="fill:none;stroke-width:0.581988;stroke-linecap:butt;stroke-linejoin:round;stroke:rgb(92.156863%,92.156863%,92.156863%);stroke-opacity:1;stroke-miterlimit:10;" d="M 202.429688 271.675781 L 202.429688 5.976562 "/>
</g>
<g clip-path="url(#clip12)" clip-rule="nonzero">
<path style="fill:none;stroke-width:0.581988;stroke-linecap:butt;stroke-linejoin:round;stroke:rgb(92.156863%,92.156863%,92.156863%);stroke-opacity:1;stroke-miterlimit:10;" d="M 236.683594 271.675781 L 236.683594 5.976562 "/>
</g>
<g clip-path="url(#clip13)" clip-rule="nonzero">
<path style="fill:none;stroke-width:0.581988;stroke-linecap:butt;stroke-linejoin:round;stroke:rgb(92.156863%,92.156863%,92.156863%);stroke-opacity:1;stroke-miterlimit:10;" d="M 271.5 271.675781 L 271.5 5.976562 "/>
</g>
<g clip-path="url(#clip14)" clip-rule="nonzero">
<path style="fill:none;stroke-width:0.581988;stroke-linecap:butt;stroke-linejoin:round;stroke:rgb(92.156863%,92.156863%,92.156863%);stroke-opacity:1;stroke-miterlimit:10;" d="M 305.191406 271.675781 L 305.191406 5.976562 "/>
</g>
<g clip-path="url(#clip15)" clip-rule="nonzero">
<path style="fill:none;stroke-width:0.581988;stroke-linecap:butt;stroke-linejoin:round;stroke:rgb(92.156863%,92.156863%,92.156863%);stroke-opacity:1;stroke-miterlimit:10;" d="M 338.882812 271.675781 L 338.882812 5.976562 "/>
</g>
<g clip-path="url(#clip16)" clip-rule="nonzero">
<path style="fill:none;stroke-width:0.581988;stroke-linecap:butt;stroke-linejoin:round;stroke:rgb(92.156863%,92.156863%,92.156863%);stroke-opacity:1;stroke-miterlimit:10;" d="M 373.136719 271.675781 L 373.136719 5.976562 "/>
</g>
<g clip-path="url(#clip17)" clip-rule="nonzero">
<path style="fill:none;stroke-width:0.581988;stroke-linecap:butt;stroke-linejoin:round;stroke:rgb(92.156863%,92.156863%,92.156863%);stroke-opacity:1;stroke-miterlimit:10;" d="M 407.390625 271.675781 L 407.390625 5.976562 "/>
</g>
<g clip-path="url(#clip18)" clip-rule="nonzero">
<path style="fill:none;stroke-width:0.581988;stroke-linecap:butt;stroke-linejoin:round;stroke:rgb(92.156863%,92.156863%,92.156863%);stroke-opacity:1;stroke-miterlimit:10;" d="M 441.644531 271.675781 L 441.644531 5.976562 "/>
</g>
<g clip-path="url(#clip19)" clip-rule="nonzero">
<path style="fill:none;stroke-width:0.581988;stroke-linecap:butt;stroke-linejoin:round;stroke:rgb(92.156863%,92.156863%,92.156863%);stroke-opacity:1;stroke-miterlimit:10;" d="M 475.898438 271.675781 L 475.898438 5.976562 "/>
</g>
<g clip-path="url(#clip20)" clip-rule="nonzero">
<path style="fill:none;stroke-width:1.163976;stroke-linecap:butt;stroke-linejoin:round;stroke:rgb(92.156863%,92.156863%,92.156863%);stroke-opacity:1;stroke-miterlimit:10;" d="M 48.347656 252.859375 L 498.023438 252.859375 "/>
</g>
<g clip-path="url(#clip21)" clip-rule="nonzero">
<path style="fill:none;stroke-width:1.163976;stroke-linecap:butt;stroke-linejoin:round;stroke:rgb(92.156863%,92.156863%,92.156863%);stroke-opacity:1;stroke-miterlimit:10;" d="M 48.347656 207.320312 L 498.023438 207.320312 "/>
</g>
<g clip-path="url(#clip22)" clip-rule="nonzero">
<path style="fill:none;stroke-width:1.163976;stroke-linecap:butt;stroke-linejoin:round;stroke:rgb(92.156863%,92.156863%,92.156863%);stroke-opacity:1;stroke-miterlimit:10;" d="M 48.347656 161.78125 L 498.023438 161.78125 "/>
</g>
<g clip-path="url(#clip23)" clip-rule="nonzero">
<path style="fill:none;stroke-width:1.163976;stroke-linecap:butt;stroke-linejoin:round;stroke:rgb(92.156863%,92.156863%,92.156863%);stroke-opacity:1;stroke-miterlimit:10;" d="M 48.347656 116.242188 L 498.023438 116.242188 "/>
</g>
<g clip-path="url(#clip24)" clip-rule="nonzero">
<path style="fill:none;stroke-width:1.163976;stroke-linecap:butt;stroke-linejoin:round;stroke:rgb(92.156863%,92.156863%,92.156863%);stroke-opacity:1;stroke-miterlimit:10;" d="M 48.347656 70.703125 L 498.023438 70.703125 "/>
</g>
<g clip-path="url(#clip25)" clip-rule="nonzero">
<path style="fill:none;stroke-width:1.163976;stroke-linecap:butt;stroke-linejoin:round;stroke:rgb(92.156863%,92.156863%,92.156863%);stroke-opacity:1;stroke-miterlimit:10;" d="M 48.347656 25.164062 L 498.023438 25.164062 "/>
</g>
<g clip-path="url(#clip26)" clip-rule="nonzero">
<path style="fill:none;stroke-width:1.163976;stroke-linecap:butt;stroke-linejoin:round;stroke:rgb(92.156863%,92.156863%,92.156863%);stroke-opacity:1;stroke-miterlimit:10;" d="M 82.261719 271.675781 L 82.261719 5.976562 "/>
</g>
<g clip-path="url(#clip27)" clip-rule="nonzero">
<path style="fill:none;stroke-width:1.163976;stroke-linecap:butt;stroke-linejoin:round;stroke:rgb(92.156863%,92.156863%,92.156863%);stroke-opacity:1;stroke-miterlimit:10;" d="M 117.078125 271.675781 L 117.078125 5.976562 "/>
</g>
<g clip-path="url(#clip28)" clip-rule="nonzero">
<path style="fill:none;stroke-width:1.163976;stroke-linecap:butt;stroke-linejoin:round;stroke:rgb(92.156863%,92.156863%,92.156863%);stroke-opacity:1;stroke-miterlimit:10;" d="M 150.769531 271.675781 L 150.769531 5.976562 "/>
</g>
<g clip-path="url(#clip29)" clip-rule="nonzero">
<path style="fill:none;stroke-width:1.163976;stroke-linecap:butt;stroke-linejoin:round;stroke:rgb(92.156863%,92.156863%,92.156863%);stroke-opacity:1;stroke-miterlimit:10;" d="M 185.585938 271.675781 L 185.585938 5.976562 "/>
</g>
<g clip-path="url(#clip30)" clip-rule="nonzero">
<path style="fill:none;stroke-width:1.163976;stroke-linecap:butt;stroke-linejoin:round;stroke:rgb(92.156863%,92.156863%,92.156863%);stroke-opacity:1;stroke-miterlimit:10;" d="M 219.277344 271.675781 L 219.277344 5.976562 "/>
</g>
<g clip-path="url(#clip31)" clip-rule="nonzero">
<path style="fill:none;stroke-width:1.163976;stroke-linecap:butt;stroke-linejoin:round;stroke:rgb(92.156863%,92.156863%,92.156863%);stroke-opacity:1;stroke-miterlimit:10;" d="M 254.09375 271.675781 L 254.09375 5.976562 "/>
</g>
<g clip-path="url(#clip32)" clip-rule="nonzero">
<path style="fill:none;stroke-width:1.163976;stroke-linecap:butt;stroke-linejoin:round;stroke:rgb(92.156863%,92.156863%,92.156863%);stroke-opacity:1;stroke-miterlimit:10;" d="M 288.90625 271.675781 L 288.90625 5.976562 "/>
</g>
<g clip-path="url(#clip33)" clip-rule="nonzero">
<path style="fill:none;stroke-width:1.163976;stroke-linecap:butt;stroke-linejoin:round;stroke:rgb(92.156863%,92.156863%,92.156863%);stroke-opacity:1;stroke-miterlimit:10;" d="M 321.476562 271.675781 L 321.476562 5.976562 "/>
</g>
<g clip-path="url(#clip34)" clip-rule="nonzero">
<path style="fill:none;stroke-width:1.163976;stroke-linecap:butt;stroke-linejoin:round;stroke:rgb(92.156863%,92.156863%,92.156863%);stroke-opacity:1;stroke-miterlimit:10;" d="M 356.292969 271.675781 L 356.292969 5.976562 "/>
</g>
<g clip-path="url(#clip35)" clip-rule="nonzero">
<path style="fill:none;stroke-width:1.163976;stroke-linecap:butt;stroke-linejoin:round;stroke:rgb(92.156863%,92.156863%,92.156863%);stroke-opacity:1;stroke-miterlimit:10;" d="M 389.984375 271.675781 L 389.984375 5.976562 "/>
</g>
<g clip-path="url(#clip36)" clip-rule="nonzero">
<path style="fill:none;stroke-width:1.163976;stroke-linecap:butt;stroke-linejoin:round;stroke:rgb(92.156863%,92.156863%,92.156863%);stroke-opacity:1;stroke-miterlimit:10;" d="M 424.796875 271.675781 L 424.796875 5.976562 "/>
</g>
<g clip-path="url(#clip37)" clip-rule="nonzero">
<path style="fill:none;stroke-width:1.163976;stroke-linecap:butt;stroke-linejoin:round;stroke:rgb(92.156863%,92.156863%,92.156863%);stroke-opacity:1;stroke-miterlimit:10;" d="M 458.492188 271.675781 L 458.492188 5.976562 "/>
</g>
<g clip-path="url(#clip38)" clip-rule="nonzero">
<path style="fill:none;stroke-width:1.163976;stroke-linecap:butt;stroke-linejoin:round;stroke:rgb(92.156863%,92.156863%,92.156863%);stroke-opacity:1;stroke-miterlimit:10;" d="M 493.304688 271.675781 L 493.304688 5.976562 "/>
</g>
<path style="fill:none;stroke-width:1.066978;stroke-linecap:butt;stroke-linejoin:round;stroke:rgb(97.254902%,46.27451%,42.745098%);stroke-opacity:1;stroke-miterlimit:10;" d="M 68.785156 28.386719 L 69.910156 28.519531 L 71.03125 28.0625 L 72.15625 28.757812 L 74.402344 28.757812 L 75.523438 30.355469 L 76.648438 28.347656 L 77.769531 30.902344 L 78.894531 36.339844 L 80.015625 35.207031 L 83.386719 35.207031 L 84.507812 30.777344 L 85.632812 30.777344 L 86.753906 31.261719 L 87.878906 32.03125 L 89 35.277344 L 91.246094 35.277344 L 92.371094 43.371094 L 93.492188 41.21875 L 94.617188 35.808594 L 95.738281 37.691406 L 96.863281 34.449219 L 99.109375 34.449219 L 100.230469 34.351562 L 101.355469 32.726562 "/>
<path style="fill:none;stroke-width:1.066978;stroke-linecap:butt;stroke-linejoin:round;stroke:rgb(48.627451%,68.235294%,0%);stroke-opacity:1;stroke-miterlimit:10;" d="M 68.785156 25.164062 L 69.910156 57.023438 L 71.03125 79.90625 L 73.277344 79.90625 L 74.402344 70.90625 L 75.523438 73.894531 L 76.648438 78.386719 L 77.769531 159.0625 L 78.894531 152.191406 L 81.140625 152.191406 L 82.261719 159.429688 L 83.386719 135.121094 L 84.507812 125.378906 L 85.632812 140.152344 L 86.753906 187.492188 L 89 187.492188 L 90.125 143.347656 L 91.246094 169.429688 L 92.371094 177.703125 L 93.492188 111.917969 L 94.617188 123.96875 L 96.863281 123.96875 L 97.984375 118.570312 L 99.109375 112.4375 L 100.230469 120.617188 L 101.355469 137.804688 L 102.476562 151.726562 L 104.722656 151.726562 L 105.847656 139.441406 L 106.96875 136.109375 L 108.09375 130.265625 L 109.214844 101.464844 L 110.339844 92.253906 L 112.585938 92.253906 L 113.707031 91.796875 L 114.832031 81.550781 L 115.953125 69.761719 L 117.078125 76.566406 L 118.199219 83.554688 L 121.570312 83.554688 L 122.691406 55.5 L 123.816406 62.933594 L 124.9375 85.902344 L 126.0625 58.015625 L 128.308594 58.015625 L 129.433594 79.996094 L 130.554688 53.703125 L 131.679688 54.847656 L 132.800781 47.304688 L 133.925781 47.226562 L 136.171875 47.226562 L 137.292969 46.832031 L 138.417969 40.070312 L 139.539062 52.957031 L 140.664062 105.269531 L 141.785156 102.449219 L 144.03125 102.449219 L 145.15625 111.292969 L 146.277344 108.996094 L 147.402344 104.335938 L 148.523438 108.894531 L 149.648438 94.957031 L 151.894531 94.957031 L 153.015625 91.632812 L 154.140625 82.65625 L 155.261719 84.640625 L 156.386719 86.011719 L 157.507812 87.105469 L 160.878906 87.105469 L 162 78.640625 L 163.125 75.449219 L 164.246094 58.851562 L 165.371094 61.613281 L 167.617188 61.613281 L 168.738281 60.273438 L 169.863281 80.210938 L 170.984375 61.738281 L 172.109375 67.792969 L 173.230469 69.039062 L 175.476562 69.039062 L 176.601562 77.773438 L 177.722656 89.449219 L 178.847656 92.636719 L 179.96875 113.585938 L 181.09375 102.15625 L 183.339844 102.15625 L 184.460938 86.929688 L 185.585938 83.730469 L 186.707031 83.640625 L 187.832031 133.808594 L 188.953125 140.605469 L 191.199219 140.605469 L 192.324219 121.109375 L 193.445312 141.15625 L 194.570312 144.152344 L 195.691406 181.394531 L 199.0625 181.394531 L 200.183594 176.332031 L 201.308594 173.636719 L 202.429688 174.390625 L 203.554688 183.027344 L 204.675781 178.839844 L 206.921875 178.839844 L 208.046875 177.128906 L 209.167969 181.902344 L 210.292969 188.457031 L 211.414062 188.457031 L 212.539062 175.433594 L 214.785156 175.433594 L 215.90625 176.070312 L 217.03125 188.257812 L 218.152344 175.230469 L 219.277344 179.492188 L 220.398438 177.003906 L 222.644531 177.003906 L 223.769531 195.039062 L 224.890625 187.492188 L 226.015625 193.953125 L 227.136719 205.957031 L 228.261719 205.894531 L 230.507812 205.894531 L 231.628906 215.695312 L 232.753906 194.804688 L 233.875 194.328125 L 235 219.746094 L 236.125 215.273438 L 238.371094 215.273438 L 239.492188 224.460938 L 240.617188 214.9375 L 241.738281 215.988281 L 242.863281 227.859375 L 243.984375 235.84375 L 247.355469 235.84375 L 248.476562 231.503906 L 249.601562 237.628906 L 250.722656 217.707031 L 251.847656 217.898438 L 255.214844 217.898438 L 256.339844 215.496094 L 257.460938 202.910156 L 258.585938 207.941406 L 259.707031 201.25 L 261.953125 201.25 L 263.078125 193.167969 L 264.199219 193.242188 L 265.324219 193.171875 L 266.445312 206.949219 L 267.570312 222.050781 L 270.9375 222.050781 L 272.0625 202.140625 L 273.183594 211.246094 L 274.308594 223.898438 L 275.429688 225.554688 L 277.675781 225.554688 L 278.800781 224.378906 L 279.921875 227.972656 L 281.046875 223.515625 L 282.167969 234.019531 L 283.292969 237.097656 L 285.539062 237.097656 L 286.660156 236.179688 L 287.785156 235.789062 L 288.90625 219.820312 L 290.03125 229.625 L 291.152344 231.109375 L 293.398438 231.109375 L 294.523438 248.28125 L 295.644531 247.832031 L 296.769531 244.539062 L 297.890625 248.035156 L 299.015625 250.433594 L 301.261719 250.433594 L 302.382812 251.160156 L 303.507812 258.863281 L 304.628906 258.808594 L 305.753906 252.210938 L 306.875 249.300781 L 310.246094 249.300781 L 311.367188 259.597656 L 312.492188 253.820312 L 313.613281 235.980469 L 314.738281 252.566406 L 316.984375 252.566406 L 318.105469 250.089844 L 319.230469 250.507812 L 321.476562 259.285156 L 322.597656 248.917969 L 323.722656 231.972656 L 325.96875 231.972656 L 327.089844 247.640625 L 328.214844 248.511719 L 329.335938 255.332031 L 330.460938 231.535156 L 331.582031 216.441406 L 333.828125 216.441406 L 334.953125 192.757812 L 336.074219 209.734375 L 337.199219 203.351562 L 338.320312 202.101562 L 339.445312 201.046875 L 341.691406 201.046875 L 342.816406 205.734375 L 343.9375 208.847656 L 345.0625 196.636719 L 346.183594 197.917969 L 347.308594 189.488281 L 349.554688 189.488281 L 350.675781 201.589844 L 351.800781 204.417969 L 352.921875 205.019531 L 354.046875 197.148438 L 355.167969 205.324219 L 357.414062 205.324219 L 358.539062 199.976562 L 359.660156 195.410156 L 360.785156 197.3125 L 361.90625 201.839844 L 363.03125 206.046875 L 365.277344 206.046875 L 366.398438 218.738281 L 367.523438 217.664062 L 368.644531 217.660156 L 369.769531 217.695312 L 370.890625 216.148438 L 373.136719 216.148438 L 374.261719 217.675781 L 375.382812 212.367188 L 376.507812 217.15625 L 377.628906 209.945312 L 378.753906 207.707031 L 381 207.707031 L 382.121094 212.992188 L 383.246094 203.363281 L 384.367188 204.339844 L 385.492188 205.03125 L 386.613281 218.234375 L 388.859375 218.234375 L 389.984375 216.34375 L 391.105469 207.347656 L 392.230469 194.929688 L 393.351562 167.707031 L 394.476562 178.058594 L 396.722656 178.058594 L 397.84375 190.476562 L 398.96875 189.511719 L 400.089844 169.980469 L 401.214844 173.953125 L 402.335938 189.832031 L 404.582031 189.832031 L 405.707031 189.863281 L 406.828125 193.578125 L 407.953125 197.175781 L 409.074219 198.074219 L 410.199219 200.140625 L 412.445312 200.140625 L 413.566406 196.574219 L 414.691406 196.847656 L 415.8125 201.675781 L 416.9375 205.394531 L 418.058594 207.480469 L 421.429688 207.480469 L 422.550781 211.558594 L 423.675781 203.636719 L 424.796875 196.40625 L 425.921875 220.457031 L 428.167969 220.457031 L 429.289062 221.5625 L 430.414062 219.390625 L 431.535156 215.976562 L 432.660156 219.214844 L 433.78125 221.671875 L 436.027344 221.671875 L 437.152344 221 L 438.273438 217.71875 L 439.398438 224.738281 L 440.519531 219.273438 L 441.644531 218.011719 L 445.011719 218.011719 L 446.136719 222.867188 L 447.261719 220.359375 L 448.382812 222.582031 L 449.507812 220.507812 L 451.753906 220.507812 L 452.875 209.171875 L 454 220.863281 L 455.121094 208.808594 L 456.246094 227.117188 L 457.367188 231.847656 L 459.613281 231.847656 L 460.738281 240.671875 L 461.859375 240.671875 L 462.984375 241.445312 L 464.105469 239.316406 L 465.230469 238.027344 L 467.476562 238.027344 L 468.597656 234.964844 L 469.722656 233.128906 L 470.84375 220.804688 L 471.96875 207.195312 L 473.089844 222.417969 L 475.335938 222.417969 L 476.460938 222.546875 L 477.582031 222.222656 "/>
<path style="fill:none;stroke-width:1.066978;stroke-linecap:butt;stroke-linejoin:round;stroke:rgb(0%,74.901961%,76.862745%);stroke-opacity:1;stroke-miterlimit:10;" d="M 68.785156 28.699219 L 69.910156 34.101562 L 72.15625 34.101562 L 73.277344 28.984375 L 74.402344 32.984375 L 75.523438 32.332031 L 76.648438 30.082031 L 77.769531 31.414062 L 80.015625 31.414062 L 82.261719 30.171875 L 83.386719 38.101562 L 84.507812 42.582031 L 85.632812 55.65625 L 86.753906 57.300781 L 89 57.300781 L 90.125 57.101562 L 91.246094 57.265625 L 92.371094 57.96875 L 93.492188 95.273438 L 94.617188 95.527344 L 96.863281 95.527344 L 97.984375 99.765625 L 99.109375 95.804688 L 100.230469 94.328125 L 101.355469 49.019531 L 102.476562 48.683594 L 104.722656 48.683594 L 105.847656 48.082031 L 106.96875 49.304688 L 108.09375 48.90625 L 109.214844 42.792969 L 110.339844 42.207031 L 113.707031 42.207031 L 114.832031 41.390625 L 115.953125 41.804688 L 117.078125 30.914062 L 118.199219 30.144531 L 120.445312 30.144531 L 121.570312 27.375 L 122.691406 25.3125 L 123.816406 24.289062 L 124.9375 25.015625 L 126.0625 24.453125 L 128.308594 24.453125 L 129.433594 28.066406 L 130.554688 21.957031 L 131.679688 22.253906 L 132.800781 22.582031 L 133.925781 22.765625 L 137.292969 22.765625 L 138.417969 27.617188 L 139.539062 27.550781 L 140.664062 28.960938 L 141.785156 26.753906 L 144.03125 26.753906 L 145.15625 28.058594 L 146.277344 26.171875 L 147.402344 27.59375 L 148.523438 23.613281 L 149.648438 26.503906 L 151.894531 26.503906 L 153.015625 36.519531 L 154.140625 36.519531 L 155.261719 39.558594 L 156.386719 18.054688 L 157.507812 20.167969 L 159.753906 20.167969 L 160.878906 22.414062 L 162 24.273438 L 163.125 22.527344 L 164.246094 26.453125 L 165.371094 23.769531 L 167.617188 23.769531 L 168.738281 23.945312 L 169.863281 24.246094 "/>
<path style="fill:none;stroke-width:1.066978;stroke-linecap:butt;stroke-linejoin:round;stroke:rgb(78.039216%,48.627451%,100%);stroke-opacity:1;stroke-miterlimit:10;" d="M 68.785156 29.925781 L 71.03125 29.925781 L 72.15625 32.019531 L 73.277344 32.191406 L 74.402344 29.746094 L 75.523438 36.433594 L 76.648438 40.621094 L 78.894531 40.621094 L 80.015625 42.679688 L 81.140625 41.570312 L 82.261719 30.765625 L 83.386719 55.640625 L 84.507812 71.371094 L 86.753906 71.371094 L 87.878906 120.828125 L 89 124.117188 L 90.125 115.207031 L 91.246094 122.207031 L 92.371094 127.3125 L 94.617188 127.3125 L 95.738281 132.792969 L 96.863281 140.960938 L 97.984375 145.644531 L 99.109375 124.40625 L 100.230469 99.679688 L 103.601562 99.679688 L 104.722656 128.285156 L 105.847656 123.535156 L 106.96875 70.785156 L 108.09375 115.695312 L 110.339844 115.695312 L 111.460938 109.152344 L 112.585938 111.808594 L 117.078125 124.230469 L 118.199219 77.40625 L 119.324219 60 L 121.570312 60 L 122.691406 69.722656 L 123.816406 108.320312 L 124.9375 107.21875 L 126.0625 63.277344 L 127.183594 49.90625 L 129.433594 49.90625 L 130.554688 86.046875 L 131.679688 69.902344 L 132.800781 96.660156 L 133.925781 55.171875 L 135.046875 94.40625 L 137.292969 94.40625 L 138.417969 96.007812 L 139.539062 54.183594 L 140.664062 59.570312 L 141.785156 178.664062 L 142.910156 180.957031 L 145.15625 180.957031 L 146.277344 108.074219 L 147.402344 80.652344 L 148.523438 80.523438 L 149.648438 103.136719 L 150.769531 81.734375 L 151.894531 81.734375 L 153.015625 105.09375 L 154.140625 113.316406 L 155.261719 108.214844 L 156.386719 103.738281 L 157.507812 104.332031 L 159.753906 104.332031 L 160.878906 113.757812 L 162 110.292969 L 163.125 110.179688 L 164.246094 113.386719 L 165.371094 83.570312 L 167.617188 83.570312 L 168.738281 85.082031 L 169.863281 88.238281 L 170.984375 89.78125 L 172.109375 93.574219 L 173.230469 87.152344 L 175.476562 87.152344 L 176.601562 93.824219 L 177.722656 112.808594 L 178.847656 112.421875 L 179.96875 86.417969 L 181.09375 80.9375 L 183.339844 80.9375 L 185.585938 86.148438 L 186.707031 98.886719 L 187.832031 98.707031 L 188.953125 147.558594 L 190.078125 141.285156 L 192.324219 141.285156 L 193.445312 141.070312 L 194.570312 142.941406 L 195.691406 144.671875 L 196.816406 142.148438 L 197.9375 136.246094 L 200.183594 136.246094 L 201.308594 136.226562 L 202.429688 131.03125 L 203.554688 125.992188 L 204.675781 90.28125 L 205.800781 91.402344 L 208.046875 91.402344 L 209.167969 103.714844 L 210.292969 106.632812 L 211.414062 102.96875 L 212.539062 71.304688 L 213.660156 70.59375 L 217.03125 70.59375 L 218.152344 93.640625 L 219.277344 76.105469 L 220.398438 67.886719 L 222.644531 67.886719 L 223.769531 70.636719 L 224.890625 65.757812 L 226.015625 71.164062 L 227.136719 71.433594 L 228.261719 75.582031 L 230.507812 75.582031 L 231.628906 82.816406 L 232.753906 74.53125 L 233.875 81.449219 L 235 77.664062 L 236.125 77.191406 L 239.492188 77.191406 L 240.617188 80.523438 L 241.738281 78.449219 L 242.863281 87.40625 L 243.984375 81.34375 L 246.230469 81.34375 L 247.355469 81.648438 L 248.476562 81.492188 L 249.601562 71.402344 L 250.722656 77.734375 L 251.847656 81.308594 L 255.214844 81.308594 L 256.339844 67.558594 L 257.460938 67.558594 L 258.585938 78.210938 L 259.707031 64.003906 L 260.832031 54.238281 L 263.078125 54.238281 L 264.199219 59.800781 L 265.324219 64.765625 L 266.445312 44.457031 L 267.570312 68.449219 L 268.691406 63.300781 L 270.9375 63.300781 L 272.0625 63.375 L 273.183594 69.265625 "/>
<g clip-path="url(#clip39)" clip-rule="nonzero">
<path style="fill:none;stroke-width:1.066978;stroke-linecap:butt;stroke-linejoin:round;stroke:rgb(0%,0%,0%);stroke-opacity:1;stroke-dasharray:4.267913,4.267913;stroke-miterlimit:10;" d="M 68.785156 271.675781 L 68.785156 5.976562 "/>
</g>
<g clip-path="url(#clip40)" clip-rule="nonzero">
<path style="fill:none;stroke-width:1.066978;stroke-linecap:butt;stroke-linejoin:round;stroke:rgb(92.156863%,28.627451%,22.745098%);stroke-opacity:1;stroke-dasharray:4.267913,4.267913;stroke-miterlimit:10;" d="M 75.523438 271.675781 L 75.523438 5.976562 "/>
</g>
<g clip-path="url(#clip41)" clip-rule="nonzero">
<path style="fill:none;stroke-width:1.066978;stroke-linecap:butt;stroke-linejoin:round;stroke:rgb(92.156863%,28.627451%,22.745098%);stroke-opacity:1;stroke-dasharray:4.267913,4.267913;stroke-miterlimit:10;" d="M 138.417969 271.675781 L 138.417969 5.976562 "/>
</g>
<g clip-path="url(#clip42)" clip-rule="nonzero">
<path style="fill:none;stroke-width:1.066978;stroke-linecap:butt;stroke-linejoin:round;stroke:rgb(92.156863%,28.627451%,22.745098%);stroke-opacity:1;stroke-dasharray:4.267913,4.267913;stroke-miterlimit:10;" d="M 185.585938 271.675781 L 185.585938 5.976562 "/>
</g>
<g clip-path="url(#clip43)" clip-rule="nonzero">
<path style="fill:none;stroke-width:1.066978;stroke-linecap:butt;stroke-linejoin:round;stroke:rgb(92.156863%,28.627451%,22.745098%);stroke-opacity:1;stroke-dasharray:4.267913,4.267913;stroke-miterlimit:10;" d="M 232.753906 271.675781 L 232.753906 5.976562 "/>
</g>
<g clip-path="url(#clip44)" clip-rule="nonzero">
<path style="fill:none;stroke-width:1.163976;stroke-linecap:round;stroke-linejoin:round;stroke:rgb(20%,20%,20%);stroke-opacity:1;stroke-miterlimit:10;" d="M 48.347656 271.675781 L 498.023438 271.675781 L 498.023438 5.976562 L 48.347656 5.976562 Z M 48.347656 271.675781 "/>
</g>
<g style="fill:rgb(30.196078%,30.196078%,30.196078%);fill-opacity:1;">
  <use xlink:href="#glyph0-1" x="20.964844" y="256.356445"/>
  <use xlink:href="#glyph0-2" x="23.964844" y="256.356445"/>
  <use xlink:href="#glyph0-3" x="28.964844" y="256.356445"/>
  <use xlink:href="#glyph0-4" x="33.964844" y="256.356445"/>
</g>
<g style="fill:rgb(30.196078%,30.196078%,30.196078%);fill-opacity:1;">
  <use xlink:href="#glyph0-1" x="20.964844" y="210.817383"/>
  <use xlink:href="#glyph0-5" x="23.964844" y="210.817383"/>
  <use xlink:href="#glyph0-3" x="28.964844" y="210.817383"/>
  <use xlink:href="#glyph0-4" x="33.964844" y="210.817383"/>
</g>
<g style="fill:rgb(30.196078%,30.196078%,30.196078%);fill-opacity:1;">
  <use xlink:href="#glyph0-1" x="20.964844" y="165.27832"/>
  <use xlink:href="#glyph0-6" x="23.964844" y="165.27832"/>
  <use xlink:href="#glyph0-3" x="28.964844" y="165.27832"/>
  <use xlink:href="#glyph0-4" x="33.964844" y="165.27832"/>
</g>
<g style="fill:rgb(30.196078%,30.196078%,30.196078%);fill-opacity:1;">
  <use xlink:href="#glyph0-1" x="20.964844" y="119.739258"/>
  <use xlink:href="#glyph0-7" x="23.964844" y="119.739258"/>
  <use xlink:href="#glyph0-3" x="28.964844" y="119.739258"/>
  <use xlink:href="#glyph0-4" x="33.964844" y="119.739258"/>
</g>
<g style="fill:rgb(30.196078%,30.196078%,30.196078%);fill-opacity:1;">
  <use xlink:href="#glyph0-1" x="20.964844" y="74.200195"/>
  <use xlink:href="#glyph0-8" x="23.964844" y="74.200195"/>
  <use xlink:href="#glyph0-3" x="28.964844" y="74.200195"/>
  <use xlink:href="#glyph0-4" x="33.964844" y="74.200195"/>
</g>
<g style="fill:rgb(30.196078%,30.196078%,30.196078%);fill-opacity:1;">
  <use xlink:href="#glyph0-3" x="28.964844" y="28.661133"/>
  <use xlink:href="#glyph0-4" x="33.964844" y="28.661133"/>
</g>
<path style="fill:none;stroke-width:1.163976;stroke-linecap:butt;stroke-linejoin:round;stroke:rgb(20%,20%,20%);stroke-opacity:1;stroke-miterlimit:10;" d="M 45.355469 252.859375 L 48.347656 252.859375 "/>
<path style="fill:none;stroke-width:1.163976;stroke-linecap:butt;stroke-linejoin:round;stroke:rgb(20%,20%,20%);stroke-opacity:1;stroke-miterlimit:10;" d="M 45.355469 207.320312 L 48.347656 207.320312 "/>
<path style="fill:none;stroke-width:1.163976;stroke-linecap:butt;stroke-linejoin:round;stroke:rgb(20%,20%,20%);stroke-opacity:1;stroke-miterlimit:10;" d="M 45.355469 161.78125 L 48.347656 161.78125 "/>
<path style="fill:none;stroke-width:1.163976;stroke-linecap:butt;stroke-linejoin:round;stroke:rgb(20%,20%,20%);stroke-opacity:1;stroke-miterlimit:10;" d="M 45.355469 116.242188 L 48.347656 116.242188 "/>
<path style="fill:none;stroke-width:1.163976;stroke-linecap:butt;stroke-linejoin:round;stroke:rgb(20%,20%,20%);stroke-opacity:1;stroke-miterlimit:10;" d="M 45.355469 70.703125 L 48.347656 70.703125 "/>
<path style="fill:none;stroke-width:1.163976;stroke-linecap:butt;stroke-linejoin:round;stroke:rgb(20%,20%,20%);stroke-opacity:1;stroke-miterlimit:10;" d="M 45.355469 25.164062 L 48.347656 25.164062 "/>
<path style="fill:none;stroke-width:1.163976;stroke-linecap:butt;stroke-linejoin:round;stroke:rgb(20%,20%,20%);stroke-opacity:1;stroke-miterlimit:10;" d="M 82.261719 274.664062 L 82.261719 271.675781 "/>
<path style="fill:none;stroke-width:1.163976;stroke-linecap:butt;stroke-linejoin:round;stroke:rgb(20%,20%,20%);stroke-opacity:1;stroke-miterlimit:10;" d="M 117.078125 274.664062 L 117.078125 271.675781 "/>
<path style="fill:none;stroke-width:1.163976;stroke-linecap:butt;stroke-linejoin:round;stroke:rgb(20%,20%,20%);stroke-opacity:1;stroke-miterlimit:10;" d="M 150.769531 274.664062 L 150.769531 271.675781 "/>
<path style="fill:none;stroke-width:1.163976;stroke-linecap:butt;stroke-linejoin:round;stroke:rgb(20%,20%,20%);stroke-opacity:1;stroke-miterlimit:10;" d="M 185.585938 274.664062 L 185.585938 271.675781 "/>
<path style="fill:none;stroke-width:1.163976;stroke-linecap:butt;stroke-linejoin:round;stroke:rgb(20%,20%,20%);stroke-opacity:1;stroke-miterlimit:10;" d="M 219.277344 274.664062 L 219.277344 271.675781 "/>
<path style="fill:none;stroke-width:1.163976;stroke-linecap:butt;stroke-linejoin:round;stroke:rgb(20%,20%,20%);stroke-opacity:1;stroke-miterlimit:10;" d="M 254.09375 274.664062 L 254.09375 271.675781 "/>
<path style="fill:none;stroke-width:1.163976;stroke-linecap:butt;stroke-linejoin:round;stroke:rgb(20%,20%,20%);stroke-opacity:1;stroke-miterlimit:10;" d="M 288.90625 274.664062 L 288.90625 271.675781 "/>
<path style="fill:none;stroke-width:1.163976;stroke-linecap:butt;stroke-linejoin:round;stroke:rgb(20%,20%,20%);stroke-opacity:1;stroke-miterlimit:10;" d="M 321.476562 274.664062 L 321.476562 271.675781 "/>
<path style="fill:none;stroke-width:1.163976;stroke-linecap:butt;stroke-linejoin:round;stroke:rgb(20%,20%,20%);stroke-opacity:1;stroke-miterlimit:10;" d="M 356.292969 274.664062 L 356.292969 271.675781 "/>
<path style="fill:none;stroke-width:1.163976;stroke-linecap:butt;stroke-linejoin:round;stroke:rgb(20%,20%,20%);stroke-opacity:1;stroke-miterlimit:10;" d="M 389.984375 274.664062 L 389.984375 271.675781 "/>
<path style="fill:none;stroke-width:1.163976;stroke-linecap:butt;stroke-linejoin:round;stroke:rgb(20%,20%,20%);stroke-opacity:1;stroke-miterlimit:10;" d="M 424.796875 274.664062 L 424.796875 271.675781 "/>
<path style="fill:none;stroke-width:1.163976;stroke-linecap:butt;stroke-linejoin:round;stroke:rgb(20%,20%,20%);stroke-opacity:1;stroke-miterlimit:10;" d="M 458.492188 274.664062 L 458.492188 271.675781 "/>
<path style="fill:none;stroke-width:1.163976;stroke-linecap:butt;stroke-linejoin:round;stroke:rgb(20%,20%,20%);stroke-opacity:1;stroke-miterlimit:10;" d="M 493.304688 274.664062 L 493.304688 271.675781 "/>
<g style="fill:rgb(30.196078%,30.196078%,30.196078%);fill-opacity:1;">
  <use xlink:href="#glyph1-1" x="75.896895" y="293.314863"/>
  <use xlink:href="#glyph1-2" x="80.139535" y="289.072223"/>
  <use xlink:href="#glyph1-3" x="83.675069" y="285.536689"/>
</g>
<g style="fill:rgb(30.196078%,30.196078%,30.196078%);fill-opacity:1;">
  <use xlink:href="#glyph1-4" x="110.713301" y="293.314863"/>
  <use xlink:href="#glyph1-5" x="114.955942" y="289.072223"/>
  <use xlink:href="#glyph1-6" x="118.491475" y="285.536689"/>
</g>
<g style="fill:rgb(30.196078%,30.196078%,30.196078%);fill-opacity:1;">
  <use xlink:href="#glyph1-7" x="145.111738" y="292.607832"/>
  <use xlink:href="#glyph1-8" x="150.061486" y="287.658085"/>
  <use xlink:href="#glyph1-9" x="153.59702" y="284.122551"/>
</g>
<g style="fill:rgb(30.196078%,30.196078%,30.196078%);fill-opacity:1;">
  <use xlink:href="#glyph1-10" x="178.514082" y="294.021895"/>
  <use xlink:href="#glyph1-11" x="183.46383" y="289.072147"/>
  <use xlink:href="#glyph1-12" x="186.999363" y="285.536613"/>
</g>
<g style="fill:rgb(30.196078%,30.196078%,30.196078%);fill-opacity:1;">
  <use xlink:href="#glyph1-13" x="212.205488" y="294.021895"/>
  <use xlink:href="#glyph1-5" x="217.155236" y="289.072147"/>
  <use xlink:href="#glyph1-8" x="220.69077" y="285.536613"/>
</g>
<g style="fill:rgb(30.196078%,30.196078%,30.196078%);fill-opacity:1;">
  <use xlink:href="#glyph1-14" x="248.435957" y="292.607832"/>
  <use xlink:href="#glyph1-15" x="251.971491" y="289.072298"/>
  <use xlink:href="#glyph1-16" x="255.507025" y="285.536764"/>
</g>
<g style="fill:rgb(30.196078%,30.196078%,30.196078%);fill-opacity:1;">
  <use xlink:href="#glyph1-17" x="282.541426" y="293.314863"/>
  <use xlink:href="#glyph1-5" x="286.784067" y="289.072223"/>
  <use xlink:href="#glyph1-18" x="290.3196" y="285.536689"/>
</g>
<g style="fill:rgb(30.196078%,30.196078%,30.196078%);fill-opacity:1;">
  <use xlink:href="#glyph1-19" x="315.111738" y="293.314863"/>
  <use xlink:href="#glyph1-15" x="320.768593" y="287.658009"/>
  <use xlink:href="#glyph1-20" x="324.304127" y="284.122475"/>
</g>
<g style="fill:rgb(30.196078%,30.196078%,30.196078%);fill-opacity:1;">
  <use xlink:href="#glyph1-1" x="351.342207" y="291.900801"/>
  <use xlink:href="#glyph1-6" x="355.584848" y="287.65816"/>
  <use xlink:href="#glyph1-20" x="359.120382" y="284.122626"/>
</g>
<g style="fill:rgb(30.196078%,30.196078%,30.196078%);fill-opacity:1;">
  <use xlink:href="#glyph1-19" x="382.205488" y="294.728926"/>
  <use xlink:href="#glyph1-15" x="387.862343" y="289.072072"/>
  <use xlink:href="#glyph1-21" x="391.397877" y="285.536538"/>
</g>
<g style="fill:rgb(30.196078%,30.196078%,30.196078%);fill-opacity:1;">
  <use xlink:href="#glyph1-14" x="419.142988" y="292.607832"/>
  <use xlink:href="#glyph1-2" x="422.678522" y="289.072298"/>
  <use xlink:href="#glyph1-16" x="426.214056" y="285.536764"/>
</g>
<g style="fill:rgb(30.196078%,30.196078%,30.196078%);fill-opacity:1;">
  <use xlink:href="#glyph1-14" x="454.955488" y="290.486738"/>
  <use xlink:href="#glyph1-2" x="458.491022" y="286.951204"/>
  <use xlink:href="#glyph1-22" x="462.026556" y="283.415671"/>
</g>
<g style="fill:rgb(30.196078%,30.196078%,30.196078%);fill-opacity:1;">
  <use xlink:href="#glyph1-1" x="486.939863" y="293.314863"/>
  <use xlink:href="#glyph1-2" x="491.182504" y="289.072223"/>
  <use xlink:href="#glyph1-3" x="494.718038" y="285.536689"/>
</g>
<g style="fill:rgb(0%,0%,0%);fill-opacity:1;">
  <use xlink:href="#glyph2-1" x="14.724609" y="148.328125"/>
  <use xlink:href="#glyph2-2" x="14.724609" y="144.328125"/>
  <use xlink:href="#glyph2-3" x="14.724609" y="133.328125"/>
</g>
<path style=" stroke:none;fill-rule:nonzero;fill:rgb(100%,100%,100%);fill-opacity:1;" d="M 175.738281 338.042969 L 370.632812 338.042969 L 370.632812 308.808594 L 175.738281 308.808594 Z M 175.738281 338.042969 "/>
<g style="fill:rgb(0%,0%,0%);fill-opacity:1;">
  <use xlink:href="#glyph3-1" x="181.714844" y="327.673828"/>
  <use xlink:href="#glyph3-2" x="187.714844" y="327.673828"/>
  <use xlink:href="#glyph3-3" x="194.714844" y="327.673828"/>
  <use xlink:href="#glyph3-4" x="201.714844" y="327.673828"/>
  <use xlink:href="#glyph3-5" x="208.714844" y="327.673828"/>
  <use xlink:href="#glyph3-6" x="215.714844" y="327.673828"/>
</g>
<path style=" stroke:none;fill-rule:nonzero;fill:rgb(100%,100%,100%);fill-opacity:1;" d="M 228.691406 332.066406 L 245.972656 332.066406 L 245.972656 314.785156 L 228.691406 314.785156 Z M 228.691406 332.066406 "/>
<path style="fill:none;stroke-width:1.066978;stroke-linecap:butt;stroke-linejoin:round;stroke:rgb(97.254902%,46.27451%,42.745098%);stroke-opacity:1;stroke-miterlimit:10;" d="M 230.417969 323.425781 L 244.242188 323.425781 "/>
<path style=" stroke:none;fill-rule:nonzero;fill:rgb(100%,100%,100%);fill-opacity:1;" d="M 262.925781 332.066406 L 280.207031 332.066406 L 280.207031 314.785156 L 262.925781 314.785156 Z M 262.925781 332.066406 "/>
<path style="fill:none;stroke-width:1.066978;stroke-linecap:butt;stroke-linejoin:round;stroke:rgb(48.627451%,68.235294%,0%);stroke-opacity:1;stroke-miterlimit:10;" d="M 264.65625 323.425781 L 278.480469 323.425781 "/>
<path style=" stroke:none;fill-rule:nonzero;fill:rgb(100%,100%,100%);fill-opacity:1;" d="M 302.160156 332.066406 L 319.441406 332.066406 L 319.441406 314.785156 L 302.160156 314.785156 Z M 302.160156 332.066406 "/>
<path style="fill:none;stroke-width:1.066978;stroke-linecap:butt;stroke-linejoin:round;stroke:rgb(0%,74.901961%,76.862745%);stroke-opacity:1;stroke-miterlimit:10;" d="M 303.890625 323.425781 L 317.714844 323.425781 "/>
<path style=" stroke:none;fill-rule:nonzero;fill:rgb(100%,100%,100%);fill-opacity:1;" d="M 336.398438 332.066406 L 353.679688 332.066406 L 353.679688 314.785156 L 336.398438 314.785156 Z M 336.398438 332.066406 "/>
<path style="fill:none;stroke-width:1.066978;stroke-linecap:butt;stroke-linejoin:round;stroke:rgb(78.039216%,48.627451%,100%);stroke-opacity:1;stroke-miterlimit:10;" d="M 338.125 323.425781 L 351.949219 323.425781 "/>
<g style="fill:rgb(0%,0%,0%);fill-opacity:1;">
  <use xlink:href="#glyph0-8" x="251.949219" y="326.922852"/>
</g>
<g style="fill:rgb(0%,0%,0%);fill-opacity:1;">
  <use xlink:href="#glyph0-8" x="286.183594" y="326.922852"/>
  <use xlink:href="#glyph0-7" x="291.183594" y="326.922852"/>
</g>
<g style="fill:rgb(0%,0%,0%);fill-opacity:1;">
  <use xlink:href="#glyph0-6" x="325.417969" y="326.922852"/>
</g>
<g style="fill:rgb(0%,0%,0%);fill-opacity:1;">
  <use xlink:href="#glyph0-9" x="359.65625" y="326.922852"/>
</g>
<g style="fill:rgb(0%,0%,0%);fill-opacity:1;">
  <use xlink:href="#glyph0-10" x="116.023438" y="351.020508"/>
  <use xlink:href="#glyph0-11" x="122.023438" y="351.020508"/>
  <use xlink:href="#glyph0-12" x="124.023438" y="351.020508"/>
  <use xlink:href="#glyph0-13" x="129.023438" y="351.020508"/>
  <use xlink:href="#glyph0-14" x="134.023438" y="351.020508"/>
  <use xlink:href="#glyph0-15" x="137.023438" y="351.020508"/>
  <use xlink:href="#glyph0-16" x="142.023438" y="351.020508"/>
  <use xlink:href="#glyph0-12" x="145.023438" y="351.020508"/>
  <use xlink:href="#glyph0-15" x="150.023438" y="351.020508"/>
  <use xlink:href="#glyph0-17" x="155.023438" y="351.020508"/>
  <use xlink:href="#glyph0-15" x="160.023438" y="351.020508"/>
  <use xlink:href="#glyph0-14" x="165.023438" y="351.020508"/>
  <use xlink:href="#glyph0-18" x="168.023438" y="351.020508"/>
  <use xlink:href="#glyph0-19" x="173.023438" y="351.020508"/>
  <use xlink:href="#glyph0-15" x="176.023438" y="351.020508"/>
  <use xlink:href="#glyph0-20" x="181.023438" y="351.020508"/>
  <use xlink:href="#glyph0-16" x="186.023438" y="351.020508"/>
  <use xlink:href="#glyph0-21" x="189.023438" y="351.020508"/>
  <use xlink:href="#glyph0-22" x="195.023438" y="351.020508"/>
  <use xlink:href="#glyph0-13" x="200.023438" y="351.020508"/>
  <use xlink:href="#glyph0-14" x="205.023438" y="351.020508"/>
  <use xlink:href="#glyph0-23" x="208.023438" y="351.020508"/>
  <use xlink:href="#glyph0-20" x="213.023438" y="351.020508"/>
  <use xlink:href="#glyph0-18" x="218.023438" y="351.020508"/>
  <use xlink:href="#glyph0-24" x="223.023438" y="351.020508"/>
  <use xlink:href="#glyph0-16" x="228.023438" y="351.020508"/>
  <use xlink:href="#glyph0-25" x="231.023438" y="351.020508"/>
  <use xlink:href="#glyph0-13" x="236.023438" y="351.020508"/>
  <use xlink:href="#glyph0-26" x="241.023438" y="351.020508"/>
  <use xlink:href="#glyph0-16" x="243.023438" y="351.020508"/>
  <use xlink:href="#glyph0-7" x="246.023438" y="351.020508"/>
  <use xlink:href="#glyph0-3" x="251.023438" y="351.020508"/>
  <use xlink:href="#glyph0-19" x="256.023438" y="351.020508"/>
  <use xlink:href="#glyph0-22" x="259.023438" y="351.020508"/>
  <use xlink:href="#glyph0-16" x="264.023438" y="351.020508"/>
  <use xlink:href="#glyph0-7" x="267.023438" y="351.020508"/>
  <use xlink:href="#glyph0-3" x="272.023438" y="351.020508"/>
  <use xlink:href="#glyph0-7" x="277.023438" y="351.020508"/>
  <use xlink:href="#glyph0-6" x="282.023438" y="351.020508"/>
  <use xlink:href="#glyph0-16" x="287.023438" y="351.020508"/>
  <use xlink:href="#glyph0-3" x="290.023438" y="351.020508"/>
  <use xlink:href="#glyph0-9" x="295.023438" y="351.020508"/>
  <use xlink:href="#glyph0-27" x="300.023438" y="351.020508"/>
  <use xlink:href="#glyph0-7" x="303.023438" y="351.020508"/>
  <use xlink:href="#glyph0-5" x="308.023438" y="351.020508"/>
  <use xlink:href="#glyph0-16" x="313.023438" y="351.020508"/>
  <use xlink:href="#glyph0-28" x="316.023438" y="351.020508"/>
  <use xlink:href="#glyph0-29" x="323.023438" y="351.020508"/>
  <use xlink:href="#glyph0-21" x="329.023438" y="351.020508"/>
  <use xlink:href="#glyph0-16" x="335.023438" y="351.020508"/>
  <use xlink:href="#glyph0-30" x="338.023438" y="351.020508"/>
  <use xlink:href="#glyph0-12" x="341.023438" y="351.020508"/>
  <use xlink:href="#glyph0-11" x="346.023438" y="351.020508"/>
  <use xlink:href="#glyph0-19" x="348.023438" y="351.020508"/>
  <use xlink:href="#glyph0-22" x="351.023438" y="351.020508"/>
  <use xlink:href="#glyph0-13" x="356.023438" y="351.020508"/>
  <use xlink:href="#glyph0-31" x="361.023438" y="351.020508"/>
  <use xlink:href="#glyph0-32" x="366.023438" y="351.020508"/>
  <use xlink:href="#glyph0-33" x="369.023438" y="351.020508"/>
  <use xlink:href="#glyph0-34" x="374.023438" y="351.020508"/>
  <use xlink:href="#glyph0-35" x="379.023438" y="351.020508"/>
  <use xlink:href="#glyph0-36" x="387.023438" y="351.020508"/>
  <use xlink:href="#glyph0-33" x="390.023438" y="351.020508"/>
  <use xlink:href="#glyph0-37" x="395.023438" y="351.020508"/>
  <use xlink:href="#glyph0-14" x="400.023438" y="351.020508"/>
  <use xlink:href="#glyph0-13" x="403.023438" y="351.020508"/>
  <use xlink:href="#glyph0-23" x="408.023438" y="351.020508"/>
  <use xlink:href="#glyph0-15" x="413.023438" y="351.020508"/>
  <use xlink:href="#glyph0-35" x="418.023438" y="351.020508"/>
  <use xlink:href="#glyph0-20" x="426.023438" y="351.020508"/>
  <use xlink:href="#glyph0-36" x="431.023438" y="351.020508"/>
  <use xlink:href="#glyph0-11" x="434.023438" y="351.020508"/>
  <use xlink:href="#glyph0-1" x="436.023438" y="351.020508"/>
  <use xlink:href="#glyph0-26" x="439.023438" y="351.020508"/>
  <use xlink:href="#glyph0-11" x="441.023438" y="351.020508"/>
  <use xlink:href="#glyph0-37" x="443.023438" y="351.020508"/>
  <use xlink:href="#glyph0-15" x="448.023438" y="351.020508"/>
  <use xlink:href="#glyph0-1" x="453.023438" y="351.020508"/>
  <use xlink:href="#glyph0-19" x="456.023438" y="351.020508"/>
  <use xlink:href="#glyph0-22" x="459.023438" y="351.020508"/>
  <use xlink:href="#glyph0-15" x="464.023438" y="351.020508"/>
  <use xlink:href="#glyph0-1" x="469.023438" y="351.020508"/>
  <use xlink:href="#glyph0-23" x="472.023438" y="351.020508"/>
  <use xlink:href="#glyph0-19" x="477.023438" y="351.020508"/>
  <use xlink:href="#glyph0-34" x="480.023438" y="351.020508"/>
  <use xlink:href="#glyph0-33" x="485.023438" y="351.020508"/>
  <use xlink:href="#glyph0-37" x="490.023438" y="351.020508"/>
  <use xlink:href="#glyph0-38" x="495.023438" y="351.020508"/>
</g>
</g>
</svg>
